<?xml version="1.0" encoding="UTF-8"?>
<svg id="Layer_1" data-name="Layer 1" xmlns="http://www.w3.org/2000/svg" viewBox="0 0 1360.06 1080">
  <defs>
    <style>
      .cls-1 {
        fill: #66b13f;
      }

      .cls-1, .cls-2, .cls-3, .cls-4, .cls-5, .cls-6, .cls-7, .cls-8, .cls-9 {
        stroke-width: 0px;
      }

      .cls-3 {
        fill: #8cc63f;
      }

      .cls-4 {
        fill: #546077;
      }

      .cls-5 {
        fill: #fff;
      }

      .cls-6 {
        fill: #424c5f;
      }

      .cls-7 {
        fill: #95e1f6;
      }

      .cls-8 {
        fill: #374051;
      }

      .cls-9 {
        fill: #efefef;
      }
    </style>
  </defs>
  <path class="cls-3" d="m1134.53,504.67c-.21-7.14-1.09-14.29-2.55-21.29-5.14-24.61-18.26-47.44-37.26-63.94-9.05-7.86-19.24-14.47-30.27-19.18-1.37-.58-2.74-1.14-4.12-1.68-12.58-3.95-25.74-5.76-38.91-6.86-.12,1-.31,1.95-.49,2.9-.09.01-.19.01-.28.03-2.52.49-4.18,2.88-5.68,4.77-1.47,1.85-2.88,3.72-4.23,5.67-1.07,1.55-2.22,3.07-3.21,4.67-.08.12-.13.26-.21.39-.59.39-1.19.77-1.78,1.15-6.3,3.99-13.06,7.11-20.19,9.29-9.87,3.03-20.2,4.28-30.41,3.47-9.22-2.07-18.09-5.62-26.21-10.45-7.08-4.21-13-10-19.52-14.86.69-1.11,1.21-2.35,1.5-3.73,1.03-4.96-4.59-8.13-8.36-4.82-.7.61-1.41,1.22-2.11,1.84-12.2.22-24.47,1.19-36.66,1.85-.41.02-.81.06-1.22.08-48.98,15.81-53.24,72.5-57.96,117.11-.22,4.6-.32,9.21-.46,13.81.1.03.19.08.3.1,9.93,2.22,20.38,2.93,30.47,4.22,8.22,1.06,16.45,2,24.69,2.92-.23,13.73-.51,27.47-1.23,41.18-2.58,48.86-11.38,99.82-42.86,139.07-1.52,1.9-1.92,4.52,0,6.39.5.49,1.16.79,1.85,1-.48,1.4-.82,2.85-1.08,4.2-.65,3.41-.97,6.92-.84,10.39.12,3.05.4,6.14,1.01,9.14-.18,9.94.31,19.82,1.35,29.72,1.06,10.06.41,20.97,4.11,30.47,1.73,4.46,4.3,9.54,7.81,12.86.35.33,1.27,1.33,1.69,1.69.17,1.16,2.76,3.1,3.89,3.81,16.83,10.7,33.44,15.72,52.93,20.05,9.71,2.16,19.54,3.69,29.4,4.95,4.91.63,9.82,1.18,14.74,1.69,4.86.5,10.15,1.38,14.96.36.47-.1.88-.26,1.25-.45,8.6.54,17.2.78,25.82.27,21.55-1.3,42.52-5.58,63.03-12,1.64.01,3.27-.08,4.88-.23.95.52,2.06.73,3.26.36,2.16-.66,4.28-1.43,6.37-2.25,4.25-1.28,5.72-.56,9.4-2.9,1.88-.61,5.1-2.64,6.56-3.48,1.37-.78,6.1-2.19,7.26-3.19,2.39-.93,9.09-5.45,10.88-8.1,6.52-9.64,3.36-15.92,1.17-27.29.7-11.03-.03-22.16-2.16-33.09-.31-1.58-2-3.33-3.62-3.58-13.91-2.15-26.7-8.62-37.32-17.77-15.85-13.64-26.64-32.06-35.77-50.92-.05-.13-.11-.25-.17-.38-9.72-23.57-17.12-48.24-24.97-72.48-4.19-12.95-8.14-25.97-12.45-38.88-1.66-4.96-3.33-9.92-5.08-14.84-.14-1.27-.28-2.55-.46-3.82-.39-2.68-.86-5.37-1.59-7.98-.88-3.2-1.91-6.6-3.76-9.42.28-1.07.18-2.24-.49-3.37-1.23-2.09-4.38-3.12-6.49-1.69-.27.19-.57.32-.85.48-2.93-1.61-6.27-2.34-9.54-3.32-1.33-.4-3.18-.94-4.15-1.38-.02-.02-.81-.42-.81-.42-.29-.16-.57-.32-.84-.49-.07-.04-.57-.39-.72-.49-.13-.12-.64-.58-.64-.58-.17-.17-.33-.34-.49-.53-.03-.06-.31-.47-.36-.54-.06-.1-.26-.54-.3-.59-.04-.12-.08-.24-.11-.36.08.22-.06-.41-.09-.58v-.03c.02-.08.04-.17.05-.25-.03.07-.04.09-.05.12v-.02c.04-.1.09-.23.13-.32.23-.62.51-1.26.67-1.92,1.21-4.91-3.82-9.63-8.17-10.77-.7-.18-1.4-.21-2.07-.13,0,0-.01,0-.02-.02-2.39-2.64-2.4-6.52-.03-9.13-2.14-.44-4.2-1.18-6.1-2.46-1.04-.7-1.76-1.48-2.25-2.62-.34-.65-.5-1.36-.47-2.11.07-.49.13-.97.2-1.46.32-.88.72-1.64,1.2-2.33-5.64,1.16-11.82,1.94-16.81-1.05-3.98-2.39-7.87-7.79-4.18-12.11,4.46-5.22,13.25-4.07,19.32-4.02,6.26.05,12.5.23,18.75.5,1.26.84,2.62,1.58,4.05,1.96,1.71.45,3.2.32,4.9-.05.08-.02.18-.03.27-.04.03,0,.05.01.09.02,2.73.54,5.12.82,7.9.54,1.3-.13,2.46-.58,3.68-.98,1.86-.62,3.38-1.84,4.05-3.75.74-2.12.3-4.23,0-6.39-.29-2.07-.6-4.14-.97-6.21-.37-2.09-.69-4.25-1.38-6.26-.44-1.27-.97-2.51-1.49-3.74.3-.15.6-.31.91-.46.14-.07.24-.17.37-.25-.64-3.68-1.02-7.48-.59-11.14.33-2.84,1-5.62,3.1-7.71,1.39-1.39,3.27-2.11,5.22-2.21,1.73-.09,3.2.49,4.75,1.17,1.08.48,1.8,1.36,2.22,2.39,1.56.62,2.39,2.17,3.4,3.65,7.56,11.04,11.11,15.85,13.47,26.39.51,2.29,2.16,4.17,3.14,6.3.39,1.55.77,3.09,1.18,4.63,1.29,4.86,2.85,9.72,4.64,14.42.09.65.19,1.3.26,1.96.55.97,1.09,1.94,1.63,2.91,2.95,7.64,5.95,15.26,9.14,22.8,3.92,9.24,7.95,18.44,12.16,27.55.54,1.17,1.1,2.34,1.64,3.51.6,2.31,1.54,4.6,2.05,6.42,1.4,4.96,2.82,9.82,4.63,14.64,4.18,11.1,8.55,22.13,13.11,33.08,3.66,8.81,7.22,17.74,11.71,26.17,2.04,3.82,4.41,7.42,6.52,11.19,2.12,3.79,3.82,7.85,5.97,11.59.3.52.74.92,1.25,1.19.06.16.12.32.18.48,2.15,5.95,10.96,5.05,11.21-1.5.44-11.59.51-23.19.71-34.79.35-20.29.8-40.58.82-60.88.01-7.5-.03-15-.08-22.51,3.57,1.52,7.54,2.01,11.43,1.19,6.96.86,13.97.91,20.96.32.73.23,1.46.42,2.16.54,1.75.32,3.52.78,5.3.85,1.72.07,3.54-.07,5.2-.54,1.03-.29,1.98-.74,2.82-1.38,2,.34,4.25-.56,5-2.91,2.19-6.93,2.15-15.01,1.94-22.21Z"/>
  <path class="cls-6" d="m1026.37,202.07c-.87-3.46-1.67-7.39-2.85-11.17-.44-3.65-1.2-7.2-2.31-10.67-1.33-12.44-11.15-24.61-17.66-34.57-4.62-7.07-12.19-19.27-21.47-22.13-.59-.73-1.18-1.45-1.82-2.14-1.49-1.62-3.26-3.13-5.25-4.1-1.96-.96-4.2-1.38-6.18-.17-.91.55-1.54,1.29-1.98,2.14-1.61-2.6-3.91-4.89-6.33-6.79-2.38-1.86-4.89-3.59-7.44-5.24-10.97-4.65-21.43-10.43-32.23-15.23-.75-.18-1.51-.37-2.26-.51-5.03-2.3-10.33-4.04-14.99-5.37-2.89-.92-5.8-1.73-8.72-2.44-1.72-.29-3.46-.53-5.23-.7-24.59-2.35-51.41.69-74,11.05-2.57,1.18-5.12,2.5-7.65,3.91-12.77,7.77-23.76,17.57-35.31,26.95-16.08,13.05-38.98,28.4-58.62,19.84.08.21.16.43.29.64,2.49,4.4,5.81,8.31,9.71,11.52,2.17,1.79,3.09,4.39,5.58,5.65,1.71.87,3.39,1.05,4.58,2.66.63.85,2.65,1.1,3.28,1.84s1.76.96,2.45,1.62c.87.83,1.49,1.97,1.91,3.09,1.43,3.81.21,7.72-.39,11.56-1.29,8.32-1.46,16.68-.7,25.06,1,10.2,3.21,20.26,6.41,29.99,1.27-.68,2.24-1.92,2.24-3.61,0-3.93.2-7.88.39-11.84,1.47-.43,2.58-1.66,2.13-3.54-.19-.77-.39-1.53-.58-2.3,3.38-7.95,6.11-16.09,9.06-24.18.57-.33,1.09-.8,1.5-1.48,1.67-2.72,3.49-5.23,5.45-7.57.36.3.75.58,1.2.78,17.53,8.09,36.6,5.13,54.1-1.72,15.93-6.23,31.98-14.39,44.26-26.51.19.04.39.08.58.12,3.99-3.74,8.62-6.63,14.26-6.38,4.85.21,8.23,2.62,11.83,5.59,3.85,3.18,8.39,4.77,12.46,7.58.07-.01.15-.02.22-.03,34.01,19.55,42.12,57.48,39.76,94.16-6.65,9.48-13.27,18.99-19.86,28.51-6.54,2.34-13.16,4.32-19.86,5.93-8.32,1.4-16.63,2.83-24.95,4.26-7.2.73-14.47,1-21.76.9-1.51-.27-2.99-.51-4.41-.74-7.93-1.29-17.68-2.47-26.47-1.29-7.95-1.62-15.86-3.99-23.94-4.44-5.11-.29-10.25.59-14.76,2.53-.84.19-1.68.43-2.47.67-.69.21-1.38.44-2.06.68-1.62-.33-3.38-.16-4.99.77-2.01,1.17-3.59,2.7-4.82,4.42-1.63,1.34-3.07,2.91-4.03,4.82-1.85,3.66-1.12,7.85.51,11.41,2.72,5.92,6.22,11.45,10.22,16.58,2.62,3.37,5.6,6.99,9.13,9.65,2.43,2.8,5.4,5.28,9.22,7.51,10.08,5.87,21.67,9,33,11.42,25.3,5.42,56.4,7.13,81.19-1.42,1.43-.49,2.38-1.31,2.98-2.28,21.76-4.11,42.44-15.73,57.7-31.28,10.16-5.55,18.73-12.91,25.8-22,3.15,6.61,6.34,13.63,6.77,20.78.31,5.26,8.68,8.15,10.89,2.5,5.63-14.45,13.16-35.4,10.7-52.71,1.55-17.93,1.71-35.42.75-53.61-.01-.26.02-.5.03-.76-1.14-6.22-2.71-12.37-4.17-18.2Zm-41.83,17.17c-5.06,8.16-17.74,3.65-24.86.88-.89-.35-1.71-.25-2.37.09-.12-.74-.26-1.47-.39-2.2.17-.48.27-1,.21-1.59-.36-3.63-1.56-7.21-2.64-10.68-.97-3.11-1.72-6.3-2.34-9.5-.65-3.37-1.12-6.78-1.6-10.17-.1-.68-.17-1.44-.24-2.21.19-.44.35-.91.41-1.43,1.38-10.78,12.67-10.02,19.37-4.48,5.28,4.37,8.35,11.28,11.08,17.39,3.1,6.92,7.87,16.66,3.36,23.92Z"/>
  <path class="cls-8" d="m765.64,186c-.05-.09-.09-.17-.14-.26-.45-.86-1.23-1.67-2.16-2.15-2.1-1.55-4.11-3.22-5.98-5.04-1.01-.99-1.96-2.02-2.94-3.04-.07-.07-.14-.14-.2-.22,0,0,0-.01-.01-.02.31-.75.38-1.56.09-2.41-.49-1.39-1.63-2.09-3.03-2.32-.64-.1-1.28-.06-1.93-.07-.88-.01-1.75-.06-2.63-.04-1.37.04-2.82,0-4.1.56-.21.09-.39.22-.55.36.02.08.06.15.07.23.16.43.2.87.17,1.32.19.52.23,1.07.16,1.63,0,.11,0,.21,0,.32,1.3,1.02,2.89,1.6,4.57,1.95.01.06.01.12.02.17.38,1.85,1.49,3.43,2.66,4.86,2.83,3.42,5.98,6.55,9.44,9.33,1.42,1.14,3.84,1.12,5.23-.09,1.36-1.19,2.14-3.35,1.25-5.07Z"/>
  <path class="cls-8" d="m810.87,150.28c-.25-.51-1.03-.93-1.59-.84-2.49.39-3.8,2.33-5.59,3.93-1.69,1.51-3.32,3.06-5.17,4.38-3.92,2.8-8.39,4.63-12.92,6.19-4.77,1.65-9.67,3.11-14.59,4.27-4.84,1.13-9.65.98-14.54,1.66-3.41.47-5.4,5.08-1.8,7.03,6.02,3.26,12.84,1.97,19.17.31,5.78-1.51,11.63-3.34,17.14-5.65,4.6-1.93,9.11-4.45,12.92-7.7,3.34-2.84,9.33-8.72,6.97-13.58Z"/>
  <path class="cls-5" d="m904.97,164.49c-5.63-5.71-13.5-10.45-20.36-13.47-3.35-1.48-6.58-1.23-9.41.08-26.02,20.99-67.17,51.12-100.05,35.78-13.34,13.95-22.9,31.73-22.28,50.81-.05,3.64.15,7.26.76,10.81.03,1.77.17,3.53.42,5.31.64,4.67,1.82,9.33,3.49,13.76.47,1.94,1.05,3.83,1.87,5.72,1.27,2.89,2.47,5.8,3.62,8.74,1.43,3.69,2.89,7.34,4.26,11.03.08.65.24,1.28.47,1.88.49,1.79,1.06,3.46,1.96,5.16,1.64,3.14,5.9,1.68,5.77-1.4,23.17-5.67,46.9-8.69,70.78-8.17,20.76.45,44.21,7.86,64.44,1.12,27.19-9.06,40.4-40.29,36.4-67.16-3.76-25.28-20.24-47.35-42.14-60Zm-109.02,57.35c-.03.28-.09.54-.13.82-1.41,2.49-2.87,4.95-4.24,7.46-1,1.83-2.05,3.62-3.12,5.4-8.59,5.32-16.11,12.45-15.38,23.39.64,9.58,7.56,18.38,16.7,21.27.09.03.19.05.28.08-3.25.61-6.5,1.28-9.73,2.01-.13-.16-.27-.33-.46-.48-1.5-1.23-3.5-1.76-5.15-2.76-1.61-.98-2.84-2.34-4-3.8-2.67-3.33-4.52-7.2-6.12-11.14-1.74-4.3-2.94-8.76-3.59-13.36v-.05c13.54-8.67,25.4-19.37,35.19-32-.07,1.05-.14,2.11-.26,3.16Z"/>
  <path class="cls-9" d="m783.89,293.11c-3.26-6.76-8.88-13.27-11.5-19.76-4.69-11.6-7.46-24.12-7.26-36.66.27-16.81,5.94-33.79,14.63-48.61-3.04-.48-6-1.36-8.75-2.85-11.12,13.8-17.52,30.66-18.91,49.38-1.04,13.98,1.08,28.46,6.38,41.43,3.2,7.82,8.07,19.5,15.55,25.71,2.43-3.87,5.7-6.97,9.85-8.66Z"/>
  <path class="cls-7" d="m855.47,503.75c.41,0,.41.63,0,.63s-.41-.63,0-.63Z"/>
  <path class="cls-5" d="m949.62,184.82c-.07-1.37.59-2.32,1.48-2.82,1.18-7.08,9.1-11.7,16.16-8.23,7.83,3.85,13.35,13.35,16.19,21.26,1.15,3.21,2.09,6.85,2.37,10.47.63,1.87.97,3.82.92,5.72-.35,12.82-15.78,19.33-25.56,11.51-.65-.52-.99-1.15-1.11-1.79-2.25-2.13-3.83-5.09-4.7-8.31-.62-2.29-1.17-4.6-1.68-6.93-.4-1.16-.77-2.33-1.12-3.5-1.67-5.69-2.66-11.48-2.96-17.4Z"/>
  <path class="cls-5" d="m1132.42,572.95c.03-10.59-.22-21.21-.82-31.9-.44-7.88-8.09-9.77-12.96-6.46-6.82-.77-13.57-1.03-20.54-1.03-1.55,0-2.84.37-3.9.96-1.53-5.61-10.93-3.7-10.98,2.17-.16,20.41-.52,40.82-.6,61.23-.03,7.59-2.12,18.99.7,27.08-.33,5.73-.73,11.46-1.18,17.19-.47,1.9-.93,3.8-1.4,5.69-.49,1.95-.69,4.73-1.67,6.51-2.64,4.78-4.77,3.05-8.58-.4-9.9-8.94-17-24.35-22.77-36.14-12.22-24.95-19.88-51.76-28.62-78.04-8.69-26.13-18.45-52.32-34.01-75.26-6.68-9.84-18.04-18.9-28.75-17.64.16,1,.32,2,.48,2.99.34,2.07.68,4.15.99,6.22.68,4.53,1.27,9.09,1.29,13.68,0,1.74-.81,3.27-2.16,4.31-1.5,1.16-2.97,1.24-4.78.98-1.4-.2-2.7-.65-3.9-1.29.24.71.49,1.42.73,2.13-2.65-.73-5.86.02-7.67,1.88-.37.38-.71.79-1.06,1.19-.05-.06-.09-.13-.14-.2-2.45-3.19-6.88-2.02-7.38,1.98-1.55,12.45,2.41,27.15,6.28,38.93,2.67,8.12,9.75,15.31,18.6,12.86,3.68,7.71,7.59,15.32,11.48,22.94,3.02,5.93,6.05,11.84,9.09,17.76,2.34,8.3,4.68,16.6,7.09,24.89,10.9,37.64,24.3,75.43,46.21,108.21,9.07,13.56,19.9,29.81,35.74,36.04,15.41,6.06,31.33-.22,41.28-12.75,1.45-1.83,2.79-3.75,4.03-5.75,15.64-19.05,19.41-51.04,20.12-72.74.17-5.18.22-10.37.19-15.55.49-5.89.83-11.79,1.02-17.71.49-15.12-.35-30.05-1.43-44.99Z"/>
  <path class="cls-5" d="m820.72,528.2c-9.24-2.11-13.04-2.62-21.5-4.34-5.59-54.04-8.69-100.56-40.91-144.94-6.93-12.56-33.49-28.99-45.06-37.45-9.64-7.76-20.73-13.07-33.15-15.62-2.18-.45-4.03.05-5.46,1.06-6.16.17-13.44,16.2-6.75,19.37l34.68,15.87c1.23,1.99-22.93-7.21-21.86-5.18-2.73,15.14,7.59,38.63,4.99,53.79-.72,4.19,18.26,11.72,23.56,11.02,17.48-2.31,13.93,44.24,15.38,56.11,2.59,21.18,3.11,53.23,4.67,74.5,2.63,35.9,6.84,73.36,14.54,108.6,4.97,22.74,19.91,60.05,53.05,56.15,12.62-1.48,22.46-11.06,27.69-21.67,7.58-15.38,16.02-32.76,20.55-49.28,9.54-34.76,18.58-74.23,13.89-110.07-.52-4-15.98-5.46-19.12-5.4l-19.2-2.53Z"/>
  <path class="cls-6" d="m1102,960.11c-3.26-20.95-7.05-41.82-11.08-62.63-4.02-20.75-7.62-41.86-15.39-61.61-3.24-8.26-15.69-3.53-21.22-1.54-13.32,4.8-27.22,7.49-41.14,10.09-16.83,3.14-32.2,5.77-49.33,6.07-8.36-.43-17.3.4-25.69-.47-16.44-1.7-32.8-4.31-49.03-7.43-9.92-1.91-19.74-4.95-29.68-5.91-4.85-2.71-9.65-5.07-14.7-6.82-1.5-1.35-3.24-2.49-4.82-3.77-2.84-2.32-5.62-4.68-8.13-7.37-6.42-6.89-11.12,11.11-12.25,14.48-7.11,21.4-12.63,43.28-17.84,65.2-2.61,10.97-5.14,21.97-7.76,32.94-.75,3.13-7.03,21.41-4.31,23.55,3.03,2.39,5.96,5.01,9.03,6.81,7.06,4.13,14.38,7.94,21.8,11.43,26.67,8.46,53.85,15.27,81.33,20.61,3.98-16.31,7.7-32.69,11.12-49.14,1.5-7.23,6.22-10.99,11.66-11.98.42-3.16,2.23-5.89,5.72-6.85,2.28-.63,5.18-.02,7.28,1.49,3.44.9,6.96,1.57,10.59,1.99.66.08,1.74.15,3.09.2-.9,1.73-1.35,3.75-1.11,6.07.11,1.08.26,2.15.37,3.22,1.97,1.85,3.58,4.29,4.59,7.42,5.78,17.88,9.5,36.2,12.47,54.67,1.3.07,2.58.3,3.86.49.36.04.73.06,1.09.09,20.56.52,41.14-.12,61.66-2.05,24.12-4.21,47.83-10.32,70.88-18.55-1.01-6.9-2.01-13.81-3.08-20.7Z"/>
  <path class="cls-5" d="m911.39,388.01c.13-.3.25-.59.38-.89.41-.7,1.05-1.21,1.79-1.52,1.04-.44,2.22-.37,3.21.13,1.37-3.07,3.12-6.03,4.35-8.67,2.95-6.33,5.42-13.39,9.53-19.08,4.68-6.48,11.38-9.54,18.42-12.83,6.89-3.22,13.8-6.16,20.84-8.96.31-1.07.68-2.12,1.2-3.17.98-1.94,1.69-2.42,3.39-3.6,1.33-.92,2.85.33,2.97,1.69.12,1.34.26,2.2,0,3.66-.27,1.5-.53,3.04-.73,4.55-.37,2.91-.23,5.96.35,8.83,1.22,6.06,3.8,11.85,7.82,16.58,4.09,4.81,9.18,8.66,14.73,11.66,2.88,1.56,5.87,2.86,8.9,4.08,3.23,1.29,6.83,2.22,9.39,4.66,2.12,2.02,1.29,4.8-.69,6.19-1.25,4.67-6.01,9.68-8.73,12.08-6.08,5.36-13.42,8.94-21.32,10.45-.37.76-.92,1.45-1.69,1.97-8.67,5.83-19.58,6.4-28.78,2.04-1.46-.08-2.92-.22-4.37-.39-3.88.13-7.76.24-11.64.39-2.83.11-4.47-2.15-4.53-4.53-2.36-.94-4.68-1.97-6.91-3.16-4.23-2.26-9.22-5.18-12.17-9.28-.38-.2-.75-.44-1.07-.77-.36-.36-.64-.81-.96-1.22-.15-.2-.33-.4-.46-.62-.45-.76-.79-1.62-1.18-2.41-.53-1.09-.98-2.2-1.4-3.33-.15-.41-.33-.82-.46-1.24-.22-.71-.23-1.56-.31-2.31.04-.33.09-.66.13-.99Z"/>
  <path class="cls-9" d="m980.32,334.47c-.52-1.04-1.44-1.78-2.54-2.18-1.69-.95-3.72-1.38-5.72-1.27-1.55,1.5-2.93,3.05-4.69,4.36-1.56,1.17-3.26,2.14-4.81,3.31-3.67,2.79-7.17,5.59-11.16,7.93-4.2,2.46-8.53,4.91-13.04,6.77-3.31,1.37-6.74,2.2-10.25,2.79-2.54,3.37-2.51,8.63-3.55,13.37-2.86,10.01-6.93,11.63-12.55,18.7-4.45,5.6-1.07,15.79,7.13,14.76,32.17-4.07,49.35-30.4,60.7-58.14.12-.27.23-.55.34-.82.1-.25.21-.51.31-.76h-.02c.27-.7.55-1.37.79-2.12.9-2.69.35-4.96-.95-6.68Z"/>
  <path class="cls-9" d="m721.62,426.81c.05-3.11-.1-6.1,1.44-8.9,1.43-2.6,4.98-2.26,6.49,0,1.75,2.62,1.73,5.85,2.04,8.9.32,3.11.53,6.22.73,9.33.4,6.22.74,12.44,1.04,18.67.6,12.44,1.2,24.89,1.8,37.33.6,12.44,1.04,24.88,1.46,37.33.21,6.22.27,12.44.37,18.67.1,6.12.09,12.41-.97,18.45-.63,3.57-6.02,3.22-6.88,0-1.59-5.94-2.05-12.33-2.47-18.45-.44-6.22-.91-12.44-1.23-18.67-.65-12.44-1.28-24.88-1.75-37.33-.47-12.44-.94-24.89-1.41-37.33-.24-6.22-.43-12.44-.57-18.67-.07-3.11-.13-6.22-.07-9.33Z"/>
  <path class="cls-9" d="m1012.64,528.62c18.95,40.36,27.65,86.33,51.13,124.59,3.52,5.73,8.97,14.1,16.58,5.33,2.87-3.3,3.24-11.53,3.71-15.47,1.4-11.81,2-23.67,2.39-35.56.39-11.92.4-23.77.25-35.68-.13-10.25-2.06-22.02,1.41-31.78.77-2.16,3.51-2.53,4.8-.62,7.37,10.88,7.41,28.51,8.02,41.32.74,15.67.25,31.2-1.43,46.8-1.63,15.17-3.02,50.13-26.76,46.54-9.66-1.46-16.08-10.09-20.39-18.12-6.63-12.37-12.07-25.54-17.46-38.48-11.66-28.02-22.97-57.51-25.32-88.04-.12-1.58,2.38-2.27,3.06-.82Z"/>
  <path class="cls-9" d="m796.85,578.8c.73-14.51.86-31.75,5.64-45.54,1.49-4.3,8.57-5.13,9.66,0,3.19,15.03,1.09,32.61-.05,47.87-.92,12.34.11,29.25-7.92,39.31-1.22,1.53-3.74.86-4.64-.59-6.84-11.05-3.31-28.61-2.69-41.04Z"/>
  <path class="cls-9" d="m956.5,193.23c-1.95-2.79-.7-7.76,3.28-7.88,11.94-.37,18.85,16.66,14.01,26.24-2.68,5.3-11.76,3.64-10.64-2.88.51-2.97.73-5.81-.65-8.59-1.44-2.91-4.23-4.33-6.01-6.88Z"/>
  <path class="cls-1" d="m1067.3,617.16c.19-13.71.87-27.45,1.38-41.16.93-24.82.22-51.65,6.62-75.8.32-1.2,2.26-1.28,2.53,0,5.31,24.34,3.45,51.01,3.28,75.8-.09,12.95-.06,25.92-.37,38.87-.3,12.34.29,25.86-3.32,37.73-1.21,3.97-7.31,4.24-8.4,0-2.9-11.29-1.89-23.84-1.73-35.44Z"/>
  <path class="cls-1" d="m1083.2,753.41c-12.59-1.16-22.1-1.66-32.47-10.05-8.26-6.69-14.8-15.54-20.81-24.2-12.11-17.47-21.8-36.69-30.42-56.09-11.71-26.35-19.49-53.81-25.64-81.73-5.02-13.91-9.45-28.02-13.43-42.26-1.07,48.92,14.27,98.37,36.41,141.62,10.96,21.4,24.06,43.34,39.21,62.05,10.94,13.51,31.58,29.32,49.7,19.98,4.84-2.5,2-8.89-2.55-9.31Z"/>
  <path class="cls-1" d="m813.08,716.73c10.69-17.45,20.81-33.91,27.44-53.49,6.17-18.23,8.68-37.26,13.95-55.69.44-1.53,3.01-1.73,3.33,0,7.07,38.23-12.03,86.42-35.48,116.23-4.11,5.23-12.66-1.46-9.23-7.05Z"/>
  <path class="cls-8" d="m954.31,172.75c5.04-6.26,13.7-5.41,19.93-1.45,7.07,4.5,12.12,12.38,16.3,19.46,4.37,7.39,7.32,15.78,6.06,24.46-1.09,7.49-5.42,14.63-12.59,17.63-3.68,1.54-7.97,2.03-11.87,1.15-4.6-1.03-7.73-3.44-8.84-8.12-.6-2.55,2.51-4.45,4.67-3.53,4.91,2.1,10.03,4.3,14.88.7,5.53-4.11,6.13-12.33,4.62-18.51-1.98-8.13-7.26-15.61-12.28-22.15-4.47-5.81-11.9-11.18-19.56-7.96-1,.42-2.02-.81-1.31-1.68Z"/>
  <path class="cls-8" d="m922.95,906.08c5.31,3.44,10.52,6.92,16.72,8.56,6.24,1.65,12.39,1.14,18.7,1.85,3.83.43,5.46,5.02,2,7.31-13.02,8.61-34.72,2.25-44.08-9.17-3.68-4.48,1.06-12.16,6.66-8.54Z"/>
  <path class="cls-8" d="m919.26,924.18c-10.47,20.91-16.88,45.56-23.49,68.36,3.69.84,7.75,1.76,11.43,2.1.5-1.22,1.06-3,1.51-4.32,6.46-21.23,14.14-43.05,16.75-64.88.47-3.89-4.75-4.18-6.2-1.27Z"/>
  <path class="cls-8" d="m961.61,984.48c.49,2.57,1.01,5.14,1.52,7.7.73,2.99,1.24,5.22,1.92,8.21,5.3.96,10.66,1.12,15.9,1.17-1.96-7.71-3.98-15.4-6.14-23.05-5.18-18.35-11.99-36.05-17.32-54.31-1.09-3.72-6.58-2.16-5.81,1.59,3.97,19.39,6.23,39.2,9.93,58.69Z"/>
  <path class="cls-2" d="m973.82,125.05c-23.73-30.74-63.02-42.68-100.29-45.84-21.27-1.8-44.15-1.07-63.86,8-15.36,7.07-27.8,18.89-40.88,29.32-7.4,5.9-15.2,11.47-23.86,15.38-9.42,4.26-22.2,7.73-32.13,3.42-2.62-1.14-4.84,2.34-2.29,3.92-.51-.32-.11-.05.09.27.28.45.51.93.74,1.4.65,1.32,1.21,2.67,1.78,4.02,1.05,2.5,1.95,5.17,3.31,7.52,2.01,3.46,5.25,6.57,8.27,9.14,3.33,2.84,6.96,5.1,11.01,6.75,16.03,6.51,35.17,4.24,50.53-2.97,8.93-4.19,17.21-10.17,23.86-17.46,1.84-2.02-1.03-4.93-3.01-3.01-12.15,11.74-27.18,20.68-44.3,22.26-8.18.76-16.66.11-24.42-2.71-4.11-1.49-7.83-3.79-11.1-6.68-2.64-2.33-5.61-5.08-7.23-8.26-1.34-2.63-2.36-5.44-3.53-8.15-.86-1.99-1.75-4.85-3.71-6.06l-2.29,3.92c9.05,3.91,19.42,2.55,28.59-.34,7.9-2.49,15.23-6.48,22.04-11.16,13.92-9.55,25.84-21.73,40.08-30.84,17.62-11.27,38.33-14.46,58.96-14.05,19.65.39,39.59,3.33,58.27,9.54,20.4,6.78,39.05,18.04,53.42,34.15.92,1.03,2.82-.38,1.95-1.51h0Z"/>
  <path class="cls-2" d="m762.75,186.39c-8.91,13.65-14.41,29.1-15.23,45.43-.77,15.4,2.86,30.14,7.66,44.64,4.27,12.9,9.34,25.25,15.3,37.46,4.48,9.18,9.15,18.48,15.77,26.33,13.96,16.56,37.05,21.54,57.57,24.11,27.53,3.45,56.56,1.47,83.18-6.48,12.37-3.7,24.55-8.87,35.03-16.5,11.84-8.63,24.77-16.55,34.58-27.59,2.37-2.67,4.52-5.52,6.37-8.57h-3.94c5.83,9.23,9.79,19.38,11.78,30.12.35,1.91,3.32,2.24,4.18.55,15.8-31.08,21.07-66.45,19.1-101.03-1.94-34.11-10.63-68.85-32.47-95.85-5.41-6.68-11.55-12.82-18.42-18-3.79-2.86-14.41-11.73-18.32-4.53-.99,1.83,1.79,3.46,2.79,1.63,2.4-4.41,15.16,7.35,17.21,9.14,5.55,4.82,10.6,10.23,15.07,16.07,9.31,12.17,16.15,26.05,20.8,40.62,5.13,16.06,7.79,32.81,8.8,49.61s.43,32.26-2.08,48.16c-2.85,18-8.15,35.61-16.42,51.88l4.18.55c-2.06-11.09-6.23-21.67-12.25-31.2-.92-1.45-3.03-1.5-3.94,0-7.56,12.43-20.11,20.82-31.74,29.07-5.17,3.67-10.17,7.55-15.68,10.71s-11.17,5.72-17.06,7.89c-25.33,9.34-53.32,12.12-80.15,10.33-12.27-.82-24.52-2.8-36.33-6.3-8.83-2.62-17.44-6.38-24.29-12.69-6.66-6.14-11.34-14.02-15.53-21.96-5.79-11-11.12-22.24-15.38-33.92-4.93-13.53-9.83-27.45-11.15-41.88-1.42-15.56,1.32-30.89,7.89-45.05,1.77-3.8,3.79-7.48,5.99-11.05,1.13-1.83-1.71-3.46-2.87-1.68h0Z"/>
  <path class="cls-2" d="m749.75,174.1c10.29,14.24,28.48,20.03,45.52,18.49,21-1.9,40.48-12.58,58.49-22.84,10.6-6.04,20.91-12.58,30.9-19.57h-3.02c15.3,11.37,31.2,22.44,43.86,36.83,12.71,14.45,20.02,32.05,19.17,51.45-.47,10.73-3.54,21.28-9.53,30.25s-15.43,15.75-26.04,19.14c-10.89,3.48-22.4,4.17-33.76,4.12-13.73-.06-27.41-1.37-41.09-2.39-12.18-.91-24.69-2-36.89-.76-10.6,1.07-20.99,4.33-27.64,13.15-2.31,3.07,2.87,6.05,5.16,3.02,5.78-7.67,16.13-9.8,25.17-10.42,11.52-.78,23.2.16,34.69,1.03,14.05,1.06,28.09,2.39,42.19,2.35,11.59-.03,23.46-.9,34.52-4.59,10.83-3.62,20.22-9.97,27.09-19.15,6.6-8.82,10.41-19.49,11.68-30.38,2.34-20.02-3.65-39.51-15.85-55.39-13.51-17.58-32.11-30.34-49.72-43.43-.78-.58-2.23-.55-3.02,0-16.58,11.59-34.04,22.08-52.28,30.86-16.23,7.82-34.7,14.07-52.75,9.28-8.5-2.26-16.5-6.86-21.71-14.08-2.23-3.09-7.42-.11-5.16,3.02h0Z"/>
  <path class="cls-2" d="m817.45,215.45c5.12-10.2,13.71-18.69,25.35-20.54,12.09-1.91,22.68,4.15,30.65,12.69,1.52,1.63,3.98-.44,2.99-2.31-6.24-11.81-21.61-17.44-34.33-15.54-12.66,1.9-25.1,11.5-27.83,24.36-.39,1.82,2.23,3.17,3.16,1.33h0Z"/>
  <path class="cls-2" d="m795.35,211.62c2.23.28,3.64-2.06,3.08-4.07-.62-2.21-3.02-3.72-4.88-4.83-4.2-2.5-9.26-3.66-14.13-3.2-9,.85-19.02,7.72-20.11,17.31-.2,1.78,2.48,2.33,3.28.89,1.64-2.94,3.06-5.76,5.48-8.16,2.34-2.33,5.24-4.07,8.43-4.94,3.26-.89,6.72-.85,9.99.01,1.69.45,3.31,1.06,4.83,1.92.8.45,1.58.95,2.31,1.5.26.2.6.42.82.66.41.47.25.63.58.49-1.3.54-1.08,2.23.33,2.41h0Z"/>
  <path class="cls-2" d="m794.47,218.94c1.28,3.02-2.76,6.49-4.58,8.35-2.11,2.15-4.33,4.18-6.61,6.16-4.63,4.01-9.78,7.08-14.7,10.69-8.23,6.04-9.47,16.54-4.53,25.22,5.39,9.47,16.69,12.98,26.93,13.71,10.99.78,22.95-.98,31.77-8.03,8.59-6.86,12.65-19.73,6.22-29.36-1.34-2-4.34-.26-3.23,1.89,4.16,8.09.06,18.51-6.75,23.78-7.95,6.15-19.07,7.37-28.8,6.73-9.28-.61-19.71-4.2-23.34-13.59-1.52-3.91-1.8-8.56.27-12.33,2.49-4.54,8.07-6.92,12.09-9.91,4.65-3.45,8.97-7.27,12.88-11.54,3.17-3.46,7.75-8.26,4.9-13.22-.96-1.67-3.22-.2-2.51,1.47h0Z"/>
  <path class="cls-2" d="m844.38,214.51c.22.29.42.59.61.91.1.17.19.35.28.53.01.03.14.29.04.07-.11-.24.08.22.08.23.12.34.21.69.27,1.05,0,.02.05.25.04.25-.02,0-.03-.43-.02-.16,0,.22.03.44.02.66,0,.02-.02.25-.02.25-.03-.01.11-.51,0-.11-.04.14-.08.28-.12.42-.11.37.22-.41-.04.07-.07.13-.24.31-.27.44.05-.25.26-.3.08-.11-.05.05-.1.11-.15.16s-.11.1-.16.15c-.14.14-.26.1.13-.08-.13.06-.24.17-.36.23-.06.04-.13.06-.19.1-.24.14.49-.15.1-.05-.13.03-.29.05-.41.1.45-.17.42-.03.2-.04-.07,0-.15,0-.21,0-.24.02.27.03.29.04-.04-.03-.21-.05-.25-.06-.06-.02-.12-.05-.18-.06-.21-.02.39.22.23.09-.07-.06-.27-.2-.37-.22.02,0,.36.35.24.18-.03-.05-.1-.09-.14-.13-.07-.07-.41-.48-.15-.13s-.08-.15-.13-.24c-.06-.11-.12-.23-.18-.35-.14-.26.17.51.1.22-.02-.06-.04-.13-.06-.19-.04-.13-.07-.26-.1-.39-.01-.06-.02-.2-.05-.26.03.06.05.6.04.26-.01-.29,0-.57,0-.86,0-.31-.11.57-.03.27.02-.07.03-.15.05-.23.05-.22.11-.43.19-.64.03-.08.06-.16.09-.23.11-.31-.22.43-.06.15.11-.19.2-.4.31-.59.21-.36.43-.72.68-1.06.06-.09.13-.18.2-.28.19-.27.01.01-.09.11.16-.16.29-.36.43-.53.29-.35.59-.69.89-1.03l-3.06.4c-.59-.46-.03,0,.09.11.13.13.26.26.39.39.07.08.14.16.21.24.22.24-.29-.41-.1-.14.13.2.27.39.39.59.1.16.18.32.27.48.05.09.09.19.14.28.13.24-.1-.24-.1-.24.1.43.3.84.39,1.28.02.08.03.15.05.23.09.43-.04-.15-.02-.19-.05.14.04.47.05.63,0,.18,0,.37,0,.55,0,.1-.06.45,0,.08.08-.42-.03.12-.04.16-.05.28-.16.06.08-.13-.04.03-.09.15-.11.2-.13.27.34-.43.15-.2-.06.08-.3.27.02,0,.29-.24.13-.11.05-.06-.31.19.21-.09.25-.09-.08,0-.79.2-.29.09.45-.09-.07-.03-.19-.02-.37.02.2.02.25.05-.07-.03-.18-.03-.26-.05-.15-.04-.36-.15-.51-.16.01,0,.46.24.28.11-.09-.06-.2-.1-.29-.16-.03-.02-.18-.14-.22-.15.05,0,.44.39.16.12-.12-.11-.24-.22-.35-.34-.38-.42.26.41-.06-.06-.12-.18-.22-.36-.32-.55-.19-.36.18.53,0,0-.05-.15-.1-.31-.13-.47-.02-.07-.02-.2-.05-.27.02.06.03.6.04.22,0-.15.05-.4.01-.55.1.34-.1.49-.02.23.02-.09.04-.18.07-.26.02-.06.09-.21.09-.26,0,.07-.27.51-.07.19.05-.08.33-.52.08-.16s.19-.12.23-.19c-.02.04-.5.33-.19.15.05-.03.1-.06.15-.09.07-.04.14-.07.21-.11.24-.15-.5.16-.23.09.14-.03.27-.09.4-.13.06-.01.18-.02.23-.05-.11.05-.61.04-.21.03.14,0,.28,0,.41,0,.35,0-.24-.03-.27-.04.06.03.16.03.23.05.07.02.15.05.22.07.23.06.05.16-.24-.1.04.04.11.05.15.08.33.22-.08-.05-.14-.13.03.04.13.12.17.16.17.14.02.23-.13-.2.03.08.3.54.11.14-.18-.38-.03.07.01.16-.2-.53-.04-.47-.05-.27,0,.08-.04.47.02.04.06-.47-.07.13-.08.21-.02.2.11-.26.12-.27-.04.05-.07.15-.11.21-.04.07-.08.13-.12.2-.1.18-.21.09.15-.18-.09.07-.27.23-.32.33.17-.3.39-.26.19-.15-.06.04-.13.08-.19.11-.2.13-.13-.1.24-.1-.03,0-.2.05-.21.06-.02.01.55-.05.33-.04-.12,0-.33-.05.02.03.42.09.09.02.02-.01-.22-.12.5.31.17.08-.04-.03-.14-.1-.18-.11s.44.32.25.18c-.07-.05-.23-.27,0,.03s.08.09.02,0c-.23-.38.12.44.03.09-.02-.07-.04-.14-.06-.21-.11-.35.02.48.02.21,0-.13,0-.26,0-.38,0-.33-.02.24-.04.27.03-.05.04-.16.05-.21.02-.06.06-.14.07-.2,0,.02-.23.42-.11.29.04-.05.08-.12.11-.18.12-.23-.35.42-.11.17.17-.18.09.09-.2.15.03,0,.19-.11.19-.11,0,0-.45.18-.24.11.27-.09-.5,0-.23.02.07,0,.17.01.24,0,.2-.03-.27-.01-.29-.04,0,0,.22.07.24.07-.23.06-.42-.22-.13-.04.07.04.14.1.21.13.21.11-.34-.35-.1-.07.02.03.16.18.17.18-.06-.01-.34-.43-.09-.09.03.04.05.14.09.16-.12-.32-.16-.4-.11-.24.02.06.04.12.05.18.02.02-.07-.51-.04-.28.06.42-.06-.08.04-.15.02-.01-.08.24-.07.25l.1-.27c-.1.15-.09.16.02,0l.09-.11c-.04.05-.09.1-.14.15-.09.08-.06.06.06-.04.15-.11.15-.11,0-.01-.28.16.11-.09.15-.05,0,0-.25.06-.26.07.07-.13.48-.03.18-.05.33.06.41.07.24.03-.11-.03-.09-.02.07.04.42.19-.21-.19.17.1.14.11.17.13.09.06-.11-.12-.06-.05.15.21,0-.02-.12-.2-.11-.2.03.02.19.47.09.18-.11-.32.05.18.02.22,0-.01.02-.52-.02-.06s.12-.2-.05.21c-.08.18-.09.2,0,.06l-.19.25s-.45.28-.15.12l-.29.13c-.35.03-.44.05-.28.05.23,0-.3-.04-.27-.03.42.07-.47-.16-.07-.01.05.02.24.19-.02-.03-.3-.25.01.06.05.07-.06-.02-.27-.37-.13-.13-.15-.26-.21-.54-.14-.84-.21.91.2,1.82,1.08,2.19s1.81.02,2.32-.76c1.06-1.63.04-3.68-1.61-4.38-1.79-.76-3.83.25-4.33,2.14-.43,1.6.28,3.33,1.68,4.19,1.53.93,3.6.41,4.79-.83,1.23-1.3,1.44-3.22.59-4.78-.75-1.39-2.22-2.31-3.78-2.42-3.08-.21-5.03,3.2-4,5.9.61,1.6,1.9,2.66,3.63,2.8,1.33.11,2.69-.58,3.54-1.58,1.03-1.22,1.54-2.76,1.21-4.35s-1.55-2.72-3.01-3.27c-2.48-.93-5.68.28-6.83,2.68-1.41,2.94-.25,6.35,2.29,8.25,1.33,1,3.11,1.35,4.73,1.01.84-.18,1.66-.63,2.26-1.24.84-.85,1.18-1.97,1.31-3.13.36-3.17-1.1-6.63-3.6-8.61-.52-.41-1.08-.77-1.79-.74-.65.03-1.34.24-1.79.74-1.53,1.69-3,3.42-3.7,5.63-.64,1.99-.42,4.32.72,6.09,1.3,2.01,3.5,3.1,5.89,2.59,2.15-.46,3.97-2.53,4.37-4.66.53-2.76-.69-5.33-2.64-7.23-.66-.65-1.71-.71-2.44-.15-.66.51-1.03,1.65-.48,2.4h0Z"/>
  <path class="cls-2" d="m777.19,220.59c.02-.09.05-.17.08-.25-.12.44-.12.29-.02.12.16-.27-.33.32-.08.11.07-.06.13-.12.2-.18l-.4.31c.07-.06.14-.1.22-.14l-.48.2c.19-.06.39-.1.58-.17l-1.67-.22c.06.04.11.08.17.12l-.44-.34c.16.13.3.27.42.43l-.34-.44c.15.19.27.4.36.63l-.22-.52c.11.27.18.55.22.84l-.08-.58c.04.32.04.63,0,.95l.08-.59c-.05.34-.14.66-.27.98l.22-.53c-.11.25-.24.48-.4.69l.35-.45c-.15.19-.32.36-.51.51l.46-.35c-.18.13-.37.24-.58.33l.54-.23c-.06.03-.13.05-.19.07l1.74.23-.08-.06.46.35c-.55-.43-1.06-.9-1.49-1.46l.36.46c-.21-.28-.39-.57-.52-.89l.23.55c-.08-.19-.13-.39-.16-.59l.08.62c-.02-.17-.02-.34,0-.51l-.08.62c.03-.18.07-.35.14-.51l-.23.56c.06-.12.12-.23.2-.34l-.36.47c.07-.09.15-.17.25-.24l-.47.37c.09-.07.19-.12.29-.17l-.56.24c.14-.06.29-.1.44-.12l-.62.08c.18-.02.35-.02.53,0l-.63-.08c.25.03.48.09.71.18l-.56-.24c.21.09.4.2.58.34l-.48-.37c.14.11.27.24.38.38l-.37-.48c.09.13.17.26.23.4l-.24-.56c.04.11.07.22.09.34l-.08-.62c.02.14.02.28,0,.43l.08-.62c-.02.15-.06.29-.12.43l.24-.56c-.07.15-.15.29-.25.42l.37-.47c-.1.13-.22.24-.35.34l.47-.37c-.17.13-.35.23-.54.31l.56-.24c-.22.09-.45.15-.68.18l.62-.08c-.26.03-.52.03-.78,0l.62.08c-.21-.03-.42-.09-.62-.17l.56.23c-.18-.08-.34-.17-.49-.29l.47.36c-.12-.1-.22-.2-.31-.32l.36.47c-.1-.14-.18-.28-.25-.44l.23.56c-.08-.18-.13-.37-.16-.57l.08.62c-.03-.25-.03-.49,0-.74l-.08.62c.04-.25.11-.49.2-.72l-.24.56c.11-.26.25-.5.42-.73l-.37.48c.17-.22.37-.42.59-.6l-.48.37c.18-.14.38-.25.59-.35l-.57.24c.22-.09.44-.15.67-.18l-.63.08c.26-.03.51-.03.77,0l-.63-.09c.29.04.56.12.83.24l-.57-.24c.26.12.51.26.74.44l-.48-.37c.2.16.38.34.55.54l-.37-.48c.16.21.29.43.39.66l-.24-.57c.08.21.14.42.17.64l-.08-.63c.03.25.03.49,0,.74l.08-.63c-.04.28-.11.54-.21.8l.24-.56c-.11.26-.24.49-.41.72l.37-.48c-.15.2-.33.37-.52.52l.48-.37c-.18.13-.36.24-.57.33h2.37c-.14-.07-.26-.15-.38-.24l.47.37c-.13-.11-.25-.22-.35-.36l.37.47c-.13-.17-.23-.35-.32-.54l.24.56c-.1-.24-.17-.48-.2-.74l.08.62c-.04-.3-.04-.61,0-.91l-.08.62c.04-.28.12-.55.23-.81l-.23.55c.1-.21.21-.41.36-.6l-.36.47c.12-.15.25-.28.4-.4l-.47.36c.14-.1.28-.19.44-.26l-.55.23c.08-.03.16-.06.25-.09l-2.24-.59c.07.06.12.12.18.19l-.36-.47c.06.09.11.18.16.28l-.23-.55c.05.14.08.28.11.43l-.08-.61c.02.15.02.3,0,.45l.08-.6c-.03.18-.07.34-.14.51l.22-.53c-.07.16-.16.31-.26.45l.34-.44c-.11.13-.23.25-.36.36l.44-.34c-.25.18-.49.34-.73.53l.42-.33c-.08.06-.16.11-.26.15l.47-.2-.06.02c-.73.27-1.27.79-1.38,1.6-.1.72.23,1.57.92,1.91.41.21.71.3,1.14.36.62.08,1.2-.08,1.74-.37.6-.32,1.16-.92,1.47-1.52.77-1.49.7-3.35-.56-4.55-.59-.56-1.44-.83-2.24-.59-1.18.35-2.27,1.19-2.81,2.32-.58,1.21-.73,2.44-.48,3.76.24,1.23,1.05,2.34,2.11,3,.22.14.48.25.73.33.65.21,1.3,0,1.88-.27.38-.18.71-.44,1.04-.71.48-.4.91-.94,1.18-1.5.38-.78.59-1.52.64-2.39s-.18-1.66-.54-2.42c-.63-1.36-1.96-2.37-3.37-2.79s-3.04-.24-4.23.6-2.06,1.96-2.34,3.34c-.32,1.58,0,3.11,1.09,4.33.83.94,2.2,1.41,3.43,1.39s2.52-.48,3.42-1.37c1-1,1.51-2.6,1.06-3.97-.84-2.54-4.08-3.99-6.47-2.59-1.56.91-2.14,2.79-1.75,4.49.31,1.37,1.33,2.57,2.4,3.44.39.32.77.66,1.23.85.83.35,1.6.14,2.35-.26.47-.25.92-.61,1.27-1.02.85-1.01,1.28-2.15,1.39-3.46.09-1.06-.19-2.27-.76-3.17-.4-.63-.86-1.08-1.46-1.5-.82-.58-1.93-.42-2.69.16-.38.29-.64.66-.91,1.05-.43.62-.67,1.44-.62,2.19.06.89.63,1.62,1.54,1.74.85.11,1.74-.41,1.95-1.27h0Z"/>
  <path class="cls-2" d="m953.26,181.65c.9-3.33,4.14-5.83,7.54-6.23,4.05-.48,8.03,1.83,10.8,4.58,2.79,2.76,4.77,6.19,6.65,9.6,2.08,3.77,4.06,7.62,5.4,11.72,2.45,7.48,2.72,16.27-5.24,20.31-7.23,3.67-15.41.22-21.27-4.44-1.94-1.54-4.58.9-2.79,2.79,5.31,5.58,13.06,9.1,20.85,7.8,7.19-1.21,13.47-6.55,14.71-13.89,1.44-8.51-2.22-17.12-6.15-24.46-3.74-6.99-8.14-14.59-15.94-17.57s-17.16.49-17.67,9.38c-.1,1.8,2.65,2.12,3.11.42h0Z"/>
  <path class="cls-2" d="m961.61,187.89c.03-.08-.36.4-.36.37-.14,0-.14,0,0,0,.11,0,.22,0,.33,0-.22-.02.37.1.38.1.59.17-.17-.12.35.14.8.4,1.73,1,2.34,1.48,1.66,1.32,2.91,2.84,3.92,4.55,2.12,3.57,2.47,7.4,2.45,11.6,0,1.68,2.56,2.57,3.34.9,2.47-5.28.76-11.76-2.55-16.29-1.68-2.29-3.84-4.24-6.36-5.56-2.21-1.15-6.73-1.68-7.27,1.77-.35,2.24,2.64,3.13,3.43.94h0Z"/>
  <path class="cls-2" d="m984.43,320.99c-2.52,10.5-3.54,22.63-.36,33.11,3.51,11.56,15.01,18,25.36,22.61,23.66,10.55,50.12,12.87,73.59,23.9,21.54,10.13,37.87,28.23,47.72,49.72,5.1,11.13,8.33,23.09,9.84,35.22,1.84,14.69,1.64,29.58,1.77,44.36.26,30.4,1.17,60.87.4,91.26-.71,28.02-3.98,56.32-14.35,82.56-4.62,11.68-10.52,23.67-19.31,32.81-8.9,9.25-20.63,13.73-33.42,11.21-23.94-4.73-41.63-25.51-53.24-45.63-5.96-10.32-10.88-21.2-15.44-32.2-5.17-12.46-9.96-25.06-14.29-37.84-8.97-26.44-17.27-53.18-24.62-80.12-1.84-6.76-3.82-13.45-6.2-20.05-1.04-2.89-5.63-1.72-4.67,1.29,4.26,13.29,7.51,26.85,11.49,40.22,4.2,14.06,8.73,28.05,13.2,42.03,8.2,25.66,17.23,51.27,29,75.55,10.27,21.19,24.02,41.89,44.71,54.13,11.09,6.56,24.69,10.52,37.47,7.12,11.68-3.11,20.63-11.96,27.25-21.69,15.34-22.54,22.22-50.55,25.38-77.27,3.59-30.34,2.27-61.12,2-91.59-.14-15.49-.22-30.98-.43-46.47-.19-14.44-.77-29-3.98-43.13-5.2-22.92-17.1-44.8-34.77-60.48-9.24-8.2-19.87-14.27-31.36-18.71-12.35-4.77-25.28-7.74-38.04-11.17-12.7-3.42-25.51-7.3-36.96-13.95-5.17-3-10.3-6.85-12.89-12.42-2.38-5.13-2.71-11.27-2.76-16.84-.05-5.69.32-11.48,1-17.12.21-1.78-2.7-2.13-3.11-.42h0Z"/>
  <path class="cls-2" d="m963.09,474.27c-9.73-1.52-19.63-2.36-29.48-2.72s-19.93-.5-29.63,1c-3.1.48-6.47,1.52-8.61,3.96-2.27,2.59-2.36,6.31-.47,9.13,2.3,3.43,6.25,4.56,10.18,4.84,4.97.35,10.02.23,15,.32,5.77.11,11.54.19,17.31.27,5.69.07,11.75.73,17.38-.15,2.07-.33,2-3.73,0-4.11-4.04-.77-8.33-.51-12.44-.58-4.45-.08-8.9-.16-13.35-.23-4.29-.07-8.57-.11-12.86-.16s-8.41.29-12.47-.33c-2.71-.41-7.59-3.28-4.35-6.27,2.28-2.11,6.23-2.25,9.12-2.52,8.37-.79,16.78-.9,25.18-.66,9.7.28,19.38,1.06,29.08,1.14,1.62.01,2.09-2.65.39-2.92h0Z"/>
  <path class="cls-2" d="m918.73,486.87c-3.3,2.18-6.81,5.52-5.59,9.9,1.03,3.7,5.08,5.27,8.5,5.88,10.42,1.86,21.23,2.24,31.77,1.44,3.15-.24,3.18-5.19,0-4.94-8.41.65-16.87.44-25.26-.38-2.98-.29-7.02-.22-9.6-2-3.1-2.13.73-5.32,2.53-6.85,1.67-1.42-.52-4.26-2.35-3.04h0Z"/>
  <path class="cls-2" d="m937.22,500.25c-1.64.22-3.37-.19-5.03-.2-2.19,0-4.41.06-6.57.42-1.81.3-3.77.85-5.13,2.15-1.86,1.78-1.83,4.63-.77,6.82,1.4,2.92,4.28,4.43,7.12,5.65,3.25,1.4,6.62,2.42,10.1,3.07,6.95,1.29,14.12,1.39,21.12.5,2.85-.36,3.06-4.67,0-4.62-5.73.09-11.48.33-17.19-.35-2.83-.33-5.64-.92-8.37-1.76-2.47-.76-5.49-1.67-7.5-3.38-.71-.6-1.56-1.66-1.26-2.67-.11.38.27-.17.58-.33,1.27-.65,2.85-.82,4.25-1.03,3.07-.47,6.07-.6,9.03-1.59,1.37-.46,1.25-2.91-.36-2.69h0Z"/>
  <path class="cls-2" d="m942.56,515.64c-4.16-.53-11.96.91-10.82,6.76.57,2.91,3.42,5.03,5.74,6.54,2.83,1.85,6.08,3.08,9.35,3.91,3.8.97,7.7,1.41,11.61,1.61,2.56.14,3.21-4.12.61-4.54-7.03-1.14-14.63-1.59-20.59-5.94-1.06-.77-2-1.55-2.45-2.61.1.24.11.25.03.02-.05-.25-.06-.22-.01.09,0-.11-.01-.21,0-.32-.06.33-.06.37-.02.13.02-.1.05-.2.09-.29-.12.28-.13.32-.02.1.13-.19.11-.18-.05.04.07-.09.15-.17.23-.25.08-.08.17-.16.26-.24-.19.14-.18.14.02,0,.23-.15.46-.28.7-.41.36-.18.27-.13.52-.23.3-.11.61-.21.92-.3,1.41-.4,2.84-.75,4.28-1.02.76-.14,1.23-1.01,1.12-1.72-.13-.83-.74-1.26-1.54-1.36h0Z"/>
  <path class="cls-2" d="m1139.39,529.74c-4.82-.14-9.69.52-14.51.74s-9.7.4-14.55.42-9.71-.08-14.56-.31-9.71-.94-14.53-.75c-2.26.09-2.94,3.56-.55,4.09,4.89,1.1,10.09,1.1,15.08,1.29,4.85.18,9.71.24,14.56.17,4.85-.07,9.71-.23,14.55-.58s10.13-.58,14.95-1.8c1.85-.47,1.41-3.21-.44-3.27h0Z"/>
  <path class="cls-2" d="m924.91,355c-1.56,8.98-.76,22.5-10.41,26.95-13.27,6.12-27.34,8.38-41.84,8.76-6.48.17-12.96.13-19.44.42-4.81.22-9.61.53-14.2,2.09-7.64,2.6-13.93,7.74-18.8,14.09-11.15,14.53-15.6,33.68-18.41,51.42-2.76,17.43-3.7,35.06-4.33,52.68-1.19,33.37.15,66.75-.67,100.13-.11,4.28-.25,8.55-.44,12.82-.15,3.37,5.09,3.36,5.23,0,1.47-34.54-.16-69.1.69-103.65.45-18.15,1.13-36.37,3.48-54.39,2.35-18.03,6.09-37.44,16.17-52.91,4.12-6.33,9.68-11.94,16.75-14.87,4.18-1.73,8.51-2.23,12.99-2.48,6.5-.36,13.01-.35,19.52-.51,14.02-.33,27.7-2.11,40.74-7.53,5.51-2.29,10.13-4.42,12.7-10.08,2.22-4.89,2.81-10.3,3.23-15.6.19-2.31.27-4.61.42-6.92.12-1.9-3.03-2.37-3.36-.45h0Z"/>
  <path class="cls-2" d="m857.93,507.84c-1.44,37.48-1.24,75.31-8.12,112.32-3.44,18.54-8.65,36.84-16.44,54.04-4.06,8.97-8.61,18.1-14.25,26.19-2.4,3.45-6.4,6.48-9.8,8.91-3.55,2.53-7.41,4.64-11.7,5.58-8.47,1.86-16.49-2.71-23.1-7.57-6.53-4.8-11.99-11.04-16.3-17.87-9.78-15.5-12.47-33.35-15.61-51.09-3.7-20.91-6.67-41.94-8.75-63.07-2.12-21.55-3-43.15-4.14-64.77-1.15-21.81-2.89-43.5-5.45-65.19-.85-7.2-2.3-14.98-5.8-21.47-3.23-5.99-12.2-3.08-17.55-5.01-4.14-1.5-7.77-4.05-10.76-7.26-2.63-2.82-6.85,1.41-4.23,4.23,3.06,3.28,6.74,5.95,10.85,7.76,3.74,1.65,7.17,2.03,11.21,2.21,1.57.07,3.03.23,4.57.51.23.04.38.16.6.23.55.18-.42-.84-.03,0,.27.58.56,1.15.8,1.74,1.22,3.07,2.43,6.35,3.21,9.57,1.26,5.18,1.59,10.68,2.2,15.97.63,5.45,1.18,10.91,1.67,16.38,1,11.12,1.74,22.27,2.37,33.42,1.26,22.32,2.01,44.66,4.06,66.92,2,21.67,4.92,43.25,8.59,64.7,3.15,18.38,5.68,37.31,14.98,53.8,4.05,7.18,9.19,13.85,15.36,19.33,6.14,5.45,14.14,11.12,22.4,12.52,9.12,1.55,17.64-1.92,24.84-7.35,3.43-2.58,7.32-5.52,9.92-8.96,3.05-4.03,5.48-8.76,7.92-13.18,9.39-17.08,16.24-35.49,20.86-54.41,9.17-37.52,9.88-76.37,11.09-114.77.15-4.79.31-9.58.5-14.37.15-3.85-5.83-3.84-5.98,0h0Z"/>
  <path class="cls-2" d="m1082.66,749.72c2.09,16.25,2.87,32.61,4.46,48.9.46,4.69.8,9.8-1.06,14.24-2,4.76-6.4,7.9-10.75,10.35-13.78,7.76-29.38,11.89-44.69,15.43-15.33,3.55-30.88,6.25-46.54,7.87-31.01,3.21-62.61,2.33-93.1-4.45-13.07-2.91-26.18-6.71-38.45-12.12-9.94-4.39-20.27-10.22-26.53-19.4-3.41-5.01-4.78-10.34-5.57-16.28-1.08-8.12-2.13-16.24-2.99-24.39-1.69-16.12-2.65-32.31-1.62-48.52.27-4.23.69-8.45,1.23-12.65.25-1.93-3.13-2.41-3.43-.46-2.54,16.83-2.73,33.78-1.51,50.74.62,8.58,1.59,17.13,2.66,25.66.88,7.06,1.12,14.66,3.79,21.33,4.27,10.68,13.49,18.26,23.31,23.71,11.07,6.15,23.35,10.26,35.52,13.62,31.5,8.7,64.57,10.89,97.08,8.37,16.23-1.26,32.37-3.65,48.29-7.03,15.94-3.38,32.05-7.33,46.91-14.15,10.19-4.68,20.36-10.61,21.49-22.8.62-6.68-.76-13.52-1.34-20.16-.74-8.57-1.32-17.15-2.27-25.7-.47-4.2-1.04-8.37-1.85-12.53-.33-1.69-3.27-1.33-3.04.41h0Z"/>
  <path class="cls-2" d="m967.48,996.3c-5.04-22.18-10.08-44.36-15.12-66.55-.85-3.75-6.62-2.16-5.76,1.59,5.04,22.18,10.08,44.36,15.12,66.55.85,3.75,6.62,2.16,5.76-1.59h0Z"/>
  <path class="cls-2" d="m1084.99,820.61c7.51,39.02,13.7,78.27,19.08,117.64,1.53,11.24,3,22.48,4.41,33.74.47,3.77,6.46,3.81,5.98,0-5.01-39.85-10.66-79.62-17.53-119.19-1.96-11.28-4.02-22.54-6.18-33.77-.73-3.77-6.49-2.18-5.76,1.59h0Z"/>
  <path class="cls-2" d="m959.73,924.98c-7.54,1.61-15.29,1.63-22.78-.24s-14.09-5.65-20.17-10.25c-1.77-1.34-3.69,1.46-2.29,2.97,11.17,12.01,30.83,16.07,46.17,10.89,2.13-.72,1.28-3.83-.93-3.36h0Z"/>
  <path class="cls-2" d="m784.57,946.49c10.25-36.97,19.11-74.31,28.75-111.45,2.72-10.47,5.49-20.92,8.37-31.34,1.03-3.71-4.74-5.3-5.76-1.59-10.3,37.24-19.25,74.84-28.95,112.24-2.65,10.2-5.36,20.39-8.17,30.55-1.03,3.71,4.74,5.3,5.76,1.59h0Z"/>
  <path class="cls-2" d="m925.35,924.47c-5.85,21.63-12.98,42.87-19.56,64.29-1.13,3.68,4.63,5.26,5.76,1.59,6.58-21.41,13.71-42.66,19.56-64.29,1.01-3.72-4.76-5.3-5.76-1.59h0Z"/>
  <path class="cls-2" d="m797.51,320.42c10.1,8.34,22.98,12.09,36.01,10.98,12.55-1.07,25.9-6.36,33.62-16.72,1.24-1.66-1.31-3.23-2.69-2.07-9.16,7.66-19.54,12.92-31.61,13.84-11.65.89-23.7-1.89-33.29-8.67-1.54-1.09-3.51,1.42-2.03,2.64h0Z"/>
  <path class="cls-2" d="m1020.01,382.85c-2.61,7.82-6.61,14.86-12.58,20.61-6.24,6.02-14,10.26-22.31,12.66-17.64,5.1-38.65,3.03-55.02-5.34-8.03-4.11-19.21-11.42-17.09-21.88.39-1.9-2.15-3.14-3.22-1.36-5.16,8.65,3.94,18.22,10.41,22.92,8.37,6.07,18.39,9.76,28.52,11.6,20.29,3.69,42.7,1.06,58.88-12.66,7.66-6.5,14.09-15.58,15.65-25.67.32-2.1-2.54-2.99-3.24-.89h0Z"/>
  <path class="cls-2" d="m859.04,531.43c-10.15-1.31-20.3-2.64-30.4-4.32s-19.56-3.9-29.43-5.21c-2.28-.3-2.5,3.19-.52,3.84,9.69,3.19,20.04,4.72,30.11,6.16,10.04,1.43,20.1,2.45,30.23,2.79,2.15.07,2.02-3,0-3.26h0Z"/>
  <path class="cls-2" d="m745.42,410.59c-9.67,8.41-23.17,10.93-35.59,9.14-2.66-.38-3.8,3.22-1.13,4.11,13.87,4.64,29.32-.56,39.51-10.46,1.84-1.79-.89-4.43-2.79-2.79h0Z"/>
  <path class="cls-2" d="m739.2,167.63c-3.79,11.84-5.2,24.14-4.37,36.55.8,11.95,3.61,24.59,9.47,35.15.75,1.35,2.98.44,2.51-1.06-1.76-5.62-3.54-11.12-4.88-16.86-1.36-5.8-2.24-11.73-2.7-17.67-.91-11.79.06-23.83,2.65-35.37.39-1.74-2.13-2.44-2.68-.74h0Z"/>
  <g>
    <path class="cls-5" d="m553.71,247.05c17.88-2.48,35.77-4.78,53.7-6.88,13.25-1.55,32.05-7.24,45.14-3.65,6.93,1.9,13.02,7.63,14.54,14.76,5.08,23.97,9.32,48.06,11.13,73.21,3.41,47.21,9.52,94.16,15.83,141.05,3.18,23.64,6.42,47.27,9.38,70.94,2.8,22.38,7.11,45.62,7.8,68.13.13,4.17-.48,8.06-2.81,11.63-7.48,11.46-26.17,11.89-38.12,14.28-17.13,3.42-34.25,6.86-51.38,10.28-34.3,6.86-68.6,13.7-102.93,20.36-22.25,4.32-44.52,8.57-66.81,12.72-35.97,6.69-71.95,13.37-107.92,20.07-17.15,3.2-33.71,4.25-50.58,7.33-5.9,1.08-12.69.62-16.89-3.67-3.05-3.11-4.29-7.57-5.07-11.86-18.12-99.94-30.73-195.82-47.35-296.15-2.43-14.69-5.64-29.34-6.36-44.25-.44-9.24-2.31-24.37,2.56-32.72,1.62-2.78,4.32-4.75,6.98-6.57,13.33-9.18,34.38-11.11,50.25-14.03l278.9-44.97Z"/>
    <path class="cls-2" d="m553.71,248.92c18.33-2.42,36.71-4.42,55.04-6.79,7.2-.93,14.29-2.5,21.47-3.55,7.06-1.03,14.75-1.86,21.73.09,3.49.98,6.62,2.95,9.05,5.63,2.72,3,3.68,6.46,4.48,10.33,1.83,8.77,3.54,17.57,5.04,26.4,3.1,18.18,4.77,36.39,6.25,54.75,3.01,37.34,7.58,74.53,12.49,111.67,4.9,37.1,9.56,74.25,14.84,111.3,1.3,9.12,2.57,18.25,3.48,27.42.44,4.41.8,8.83,1.03,13.25.22,4.13.69,8.51-.72,12.5-4.3,12.16-21.15,13.57-31.9,15.22-17.07,2.62-34.01,6.61-50.94,10-18.44,3.69-36.88,7.38-55.33,11.03-36.98,7.33-73.98,14.56-111.03,21.5s-73.87,13.73-110.8,20.61c-18.1,3.37-36.39,5.05-54.53,8.1-7.06,1.19-15.66,2.33-19.78-5.05-1.97-3.53-2.48-7.72-3.19-11.63-.82-4.53-1.62-9.06-2.42-13.59-6.44-36.57-12.3-73.24-17.97-109.93-5.62-36.36-11.05-72.75-16.71-109.11-2.87-18.42-5.79-36.84-8.82-55.23-1.51-9.15-3.23-18.25-4.7-27.41-1.36-8.47-2.08-16.91-2.63-25.47-.44-6.94-1.06-14.18.35-21.05.68-3.29,1.81-6.33,4.28-8.7,2.62-2.52,5.92-4.51,9.16-6.13,12.94-6.5,28.01-7.87,42.09-10.32,5.09-.88,10.2-1.69,15.31-2.51,11.76-1.9,23.53-3.79,35.29-5.69,16.44-2.65,32.89-5.3,49.33-7.95,18.48-2.98,36.96-5.96,55.44-8.94,17.91-2.89,35.81-5.77,53.72-8.66,14.48-2.33,28.97-4.67,43.45-7,8.46-1.36,16.92-2.73,25.38-4.09,1.13-.18,2.27-.37,3.4-.55,3.05-.49,1.76-5.13-1.28-4.64-4.75.77-9.5,1.53-14.25,2.3-12.34,1.99-24.68,3.98-37.02,5.97-17.07,2.75-34.14,5.51-51.21,8.26-18.94,3.05-37.88,6.11-56.81,9.16-17.94,2.89-35.89,5.79-53.83,8.68-14.09,2.27-28.17,4.54-42.26,6.81-7.37,1.19-14.73,2.38-22.1,3.56-5.97.96-11.94,1.97-17.9,3.01-7.49,1.32-15.01,2.85-22.18,5.46-6.46,2.36-13.64,5.73-18.23,11.03s-5.2,12.43-5.36,18.92c-.17,7.08.41,14.26.94,21.32,1.42,18.83,5.65,37.49,8.68,56.12,6.07,37.33,11.74,74.71,17.43,112.1,5.66,37.16,11.35,74.32,17.49,111.41,3.1,18.71,6.31,37.4,9.69,56.07,1.29,7.13,3.55,14.51,10.77,17.62,7.39,3.18,15.4.76,22.96-.37,9.17-1.37,18.38-2.36,27.56-3.62,9.41-1.29,18.72-3.09,28.05-4.83,18.8-3.5,37.59-6.99,56.39-10.49,37.85-7.04,75.69-14.1,113.47-21.47,37.56-7.33,75.08-14.84,112.61-22.35,9.53-1.91,19.06-3.82,28.6-5.72,6.41-1.28,12.87-2.15,19.3-3.34,12.44-2.32,26.16-7.67,27.63-22.06.44-4.31-.07-8.79-.37-13.1-.33-4.75-.79-9.5-1.33-14.23-1.03-9.11-2.34-18.18-3.63-27.25-2.69-18.86-4.96-37.77-7.48-56.65-5.09-38.03-10.45-76.03-14.69-114.16-2.13-19.11-3.98-38.24-5.39-57.42-1.35-18.29-3.9-36.44-7.25-54.47-.83-4.48-1.71-8.95-2.63-13.41-.8-3.89-1.33-7.95-3.1-11.55-3.09-6.26-9.36-10.7-16.12-12.09-14.53-2.99-29.4,2.22-43.74,4.04-18.19,2.31-36.38,4.62-54.53,7.25-2.07.3-1.6,3.96.5,3.68Z"/>
  </g>
  <path class="cls-3" d="m362.01,462.92c-2.87-.46-6.06.49-8.88,1.04-3.25.64-6.51,1.27-9.76,1.91-12.37,2.41-24.74,4.83-37.1,7.24-5.99,1.17-12.33,1.88-18.17,3.63-4.67,1.4-9.49,5.05-8.05,10.56,1.19,4.56,6.21,6.12,10.42,5.98,5.67-.19,11.54-1.61,17.09-2.71,6.86-1.36,13.69-2.9,20.47-4.63,5.44-1.39,11.48-2.73,16.61-5.39,6.79-1.12,13.58-2.26,20.39-3.28,1.57-.24,2.81-1.61,2.99-3.17.53-4.62-.56-10.31-6-11.19Z"/>
  <path class="cls-2" d="m442.3,380.47c-11.23,1.53-22.37,3.83-33.53,5.84-11.15,2.01-22.28,4.12-33.43,6.12-22.3,4.01-44.63,7.82-66.98,11.5-6.15,1.01-12.31,2.02-18.47,3-3.24.52-6.48,1.04-9.73,1.55s-6.55.79-9.66,1.79c-2.23.72-1.89,4.15.56,4.16,5.51.02,11.25-1.47,16.69-2.34,5.67-.9,11.34-1.82,17.01-2.75,11.18-1.83,22.34-3.71,33.5-5.64,22.48-3.9,44.92-7.97,67.34-12.23,12.54-2.38,25.19-4.7,37.54-7.92,2.05-.54,1.12-3.35-.85-3.08h0Z"/>
  <path class="cls-2" d="m398.63,418.94c-16.49,2.25-32.83,5.44-49.17,8.51-16.33,3.07-32.64,6.26-48.93,9.49-4.68.93-9.36,1.86-14.03,2.8s-9.19,1.47-13.41,3.27c-1.87.8-.81,3.63.99,3.64,3.95.02,7.91-1.11,11.76-1.89,4.19-.85,8.38-1.69,12.58-2.53,8.06-1.61,16.13-3.21,24.2-4.8,16.3-3.2,32.6-6.39,48.91-9.52,9.36-1.79,18.69-3.68,27.97-5.84,2.1-.49,1.14-3.42-.87-3.14h0Z"/>
  <path class="cls-2" d="m357.44,458.72c2.35-.06,3.21.79,4.16,2.76.87,1.81,1.4,3.86,1.73,5.83s.47,3.96.11,5.85c-.48,2.52-2.16,2.86-4.47,3.46-6.55,1.7-13.04,3.59-19.7,4.86-7.02,1.34-14.04,2.67-21.05,4.06-6.9,1.36-13.76,2.93-20.69,4.11-3.16.54-6.58,1.37-9.79,1.29-1.27-.03-1.59.12-2.27-1.05-.46-.79-.69-1.83-.91-2.71-.4-1.56-.6-3.16-.97-4.72-.5-2.17-1.6-4.71-1.01-6.96.78-2.98,4.92-3.03,7.35-3.42,6.64-1.07,13.24-2.68,19.84-4.02,7.8-1.58,15.62-3.03,23.44-4.51s16.05-3.32,24.24-3.91c3.35-.24,3.35-5.51,0-5.23-8.48.69-16.77,2.52-25.07,4.3-8.41,1.81-16.85,3.44-25.29,5.13-4.28.86-8.56,1.72-12.84,2.59-3.37.68-7.15.91-10.4,2.03-2.75.94-5.1,2.9-5.86,5.79-.81,3.04.21,6.21.92,9.16.83,3.47,1.08,7.28,3.24,10.28s6.13,2.07,9.41,1.64c8.3-1.08,16.43-3.01,24.61-4.74,8.55-1.82,17.16-3.36,25.73-5.06,3.91-.77,7.76-1.78,11.61-2.83,3.47-.95,7.95-1.44,11.03-3.39,4.4-2.77,3.64-9.65,2.68-13.96-1.13-5.06-3.76-10.7-9.76-10.02-2.11.24-2.23,3.45,0,3.39Z"/>
  <path class="cls-2" d="m608.77,339.21c-.97-.95-1.94-.88-3.2-.73-1.82.21-3.63.47-5.43.74-4,.6-8,1.21-12,1.84-8.12,1.27-16.24,2.6-24.33,4.05-16.08,2.86-32.12,6.01-48,9.81-1.15.28-1.66,1.48-1.45,2.56,5.63,29.46,12.06,58.75,17.68,88.21,1.62,8.5,3.18,17.01,4.64,25.54.22,1.28,1.73,1.86,2.85,1.62,30.79-6.76,61.85-12.26,92.53-19.49,1.28-.3,1.89-1.68,1.63-2.87-2.67-12.49-5.35-24.99-8.02-37.48-4.26-19.9-8.52-39.8-12.8-59.69-.98-4.55-1.96-9.1-2.94-13.65-.41-1.9-3.24-2.22-4.15-.54-17.89,33.28-37.2,65.79-54.44,99.42-4.91,9.58-9.58,19.3-14.03,29.1-1.02,2.25,2.28,4.22,3.35,1.96,15.95-34.07,34.74-66.69,53.15-99.47,5.36-9.54,10.68-19.1,15.89-28.73l-4.15-.54c2.65,12.5,5.3,25,7.97,37.49,4.25,19.9,8.5,39.81,12.74,59.71.97,4.55,1.94,9.1,2.91,13.65l1.63-2.87c-30.69,7.21-61.75,12.68-92.52,19.53l2.85,1.62c-5.25-30.13-11.7-60.04-17.94-89.97-1.64-7.88-3.27-15.76-4.83-23.65l-1.45,2.56c14.83-3.65,29.79-6.73,44.8-9.55,7.66-1.44,15.34-2.82,23.01-4.17,3.74-.66,7.48-1.31,11.22-1.94,1.69-.29,3.38-.57,5.07-.86.77-.13,5.33-1.41,5.68-1.1,1.41,1.23,3.44-.74,2.08-2.08h0Z"/>
  <path class="cls-2" d="m515.35,357.92c12.36,11.74,25.91,22.26,39.17,32.97,16.02,12.94,32.12,25.79,48.11,38.78,4.18,3.39,8.34,6.79,12.49,10.22,3.97,3.28,7.8,6.96,12.12,9.78,2,1.3,3.99-1.55,2.47-3.2-3.13-3.38-7-6.17-10.55-9.09-3.65-3-7.31-5.98-10.98-8.95-7.94-6.43-15.91-12.84-23.92-19.19-15.48-12.27-31.02-24.46-46.39-36.87-6.82-5.51-13.65-11.01-20.52-16.46-1.39-1.11-3.37.72-2.01,2.01h0Z"/>
  <path class="cls-2" d="m394.05,595.39c-3.85-3.67-7.81-7.38-9.49-12.58s-1.2-11.11,1.15-16.13c4.04-8.61,14.3-16.79,24.35-15.32,7.14,1.04,11.38,7.67,13.18,14.11,1.92,6.88,1.88,15.15-1.57,21.56-2.61,4.85-7.15,8.46-12.55,9.67s-10.46-.62-15.6-2.35c-2.07-.69-3.89,2.3-2.18,3.75,9.53,8.09,24.99,4.72,32.39-4.51,6.05-7.54,7.14-17.93,5.21-27.17-1.79-8.61-7.11-17.56-16.18-19.82-11.64-2.9-24.2,5.21-30.06,14.86-3.85,6.35-5.24,14.15-3.3,21.37,1.8,6.67,6.37,13.03,13.09,15.22,1.51.49,2.66-1.57,1.54-2.64Z"/>
  <path class="cls-2" d="m473.25,576.81c-4.06-3.99-8.53-7.62-10.11-13.33-1.51-5.49-.06-11.17,2.83-15.95,5.68-9.39,19.12-14.12,29.08-8.6,13.66,7.57,10.9,26.28.18,35.21-2.75,2.29-6.19,3.93-9.77,4.32-4.56.5-8.53-1.26-12.74-2.69-2.09-.71-3.85,2.28-2.18,3.75,7.13,6.29,18.45,5.55,25.97.41,7.33-5.01,12.09-13.32,13.09-22.09,1.03-9.09-2.9-17.85-10.7-22.74-11.24-7.04-27.43-3.38-35.37,6.96-4.63,6.03-7.11,13.79-5.51,21.34,1.5,7.1,6.72,13.81,13.69,16.06,1.52.49,2.64-1.56,1.54-2.64Z"/>
  <path class="cls-2" d="m555.21,561.8c-3.14-3.06-6.43-6.21-8.32-10.23-2.04-4.36-2.48-9.5-1.39-14.17,2.04-8.74,8.98-16.11,17.46-18.96,4.32-1.45,8.69-1.65,12.69.78,3.74,2.28,6.35,6.06,8.4,9.85,2.45,4.54,3.63,9.29,2.71,14.44s-3.21,9.91-6.61,13.65c-3.21,3.53-7.58,5.94-12.39,6.32s-8.76-1.22-13.07-2.72c-2.09-.73-3.86,2.3-2.18,3.75,7.9,6.85,20.7,5.42,28.49-.77,9.55-7.58,14.34-22.25,9.43-33.65-4.22-9.79-12.45-19.47-24.18-17.78-11.13,1.6-20.88,10.12-24.7,20.56-4.1,11.19-.12,27.42,12.13,31.59,1.52.52,2.64-1.58,1.54-2.64Z"/>
  <path class="cls-2" d="m435.27,612.4c-8.73.26-17.6,2.73-26.15,4.39-8.81,1.72-17.59,3.6-26.33,5.64-1.82.43-1.03,2.99.73,2.75,8.77-1.2,17.52-2.55,26.24-4.07,8.56-1.49,17.73-2.32,25.95-5.19,1.81-.63,1.7-3.59-.44-3.52Z"/>
  <path class="cls-2" d="m443.94,625.57c-9.91.51-19.73,3.58-29.32,5.96-4.82,1.2-9.61,2.43-14.4,3.75-4.45,1.23-10.18,1.91-14.02,4.57-.82.57-.96,2.24.3,2.42,4.68.69,9.98-1.09,14.57-1.96,4.89-.92,9.75-1.91,14.61-2.95,9.82-2.11,20.09-3.7,29.36-7.65,2.06-.88,1.03-4.25-1.09-4.14Z"/>
  <path class="cls-2" d="m516.07,592.15c-8,.82-15.99,2.94-23.83,4.71-3.91.88-7.83,1.77-11.74,2.65-2.03.46-4.04.96-6.06,1.49-1.71.45-3.31.78-4.72,1.9-.73.58-.29,1.79.52,2.01,1.76.49,3.44.08,5.21-.18,2.07-.3,4.13-.63,6.19-1,3.81-.69,7.62-1.39,11.43-2.08,7.83-1.43,15.99-2.54,23.59-4.9,2.4-.75,2.19-4.89-.59-4.61Z"/>
  <path class="cls-2" d="m523.43,608.26c-9.21.68-18.34,3.14-27.37,5.04-9.17,1.93-18.42,3.72-27.37,6.54-1.42.45-1.3,2.87.35,2.73,9.2-.77,18.29-2.55,27.36-4.22,9.17-1.68,18.71-2.83,27.59-5.72,2.26-.74,2.1-4.56-.56-4.36Z"/>
  <path class="cls-2" d="m598.28,576.89c-4.13-.59-8.12.12-12.24.68-3.93.54-7.85,1.2-11.77,1.81-3.92.61-7.85,1.17-11.76,1.84-2.1.36-4.19.77-6.29,1.16-1.93.36-3.95.55-5.64,1.61-1.12.7-.97,2.44.35,2.82,1.93.56,3.9.21,5.86.02,2.12-.2,4.24-.38,6.36-.6,3.94-.42,7.88-.96,11.81-1.45,3.9-.48,7.8-.92,11.69-1.44,4.13-.55,8.27-.97,12.09-2.68,1.54-.69,1.28-3.53-.46-3.78Z"/>
  <path class="cls-2" d="m596.24,596.8c-3.67-.49-7.14,0-10.79.42-3.59.41-7.16.98-10.74,1.52-7.08,1.06-14.5,1.67-21.34,3.83-2,.63-1.67,3.55.46,3.64,7.3.31,14.77-1.07,22.01-1.91,7.09-.82,14.73-1.08,21.36-3.87,2.03-.85.68-3.41-.96-3.63Z"/>
  <path class="cls-2" d="m219.1,347.67c29.41-4.51,58.58-10.86,87.82-16.37,29.08-5.48,58.19-10.82,87.32-16.05,58.41-10.48,116.94-20.32,175.55-29.67,32.78-5.23,65.62-10.1,98.42-15.23,2.79-.44,1.57-4.57-1.16-4.2-58.82,7.93-117.48,17.34-176.02,27.09s-116.99,20.07-175.31,31.14c-16.15,3.07-32.29,6.18-48.42,9.34-16.44,3.22-32.91,6.38-49.17,10.43-2.33.58-1.29,3.87.97,3.52h0Z"/>
  <path class="cls-2" d="m240.07,313.89c-4.01-1.14-7.87,1.75-9.3,5.37-1.57,3.97.36,8.17,3.87,10.33s8.19,2.14,11.64-.05c2.02-1.28,3.65-3.2,4.24-5.55s.29-4.52-.67-6.61c-1.09-2.38-3.25-4.07-5.69-4.9-1.17-.4-2.42-.54-3.65-.4-1.47.16-2.93.44-4.03,1.5-1.27,1.22-.26,3.26,1.38,3.34.55.02,1.08-.07,1.63-.14-.1.01-.4.03.05,0,.22-.02.43-.03.65-.03.14,0,.29,0,.44,0,.07,0,.78.07.23,0,.42.06.86.15,1.28.25.35.08.69.2,1.04.32-.51-.18.14.07.21.1.16.08.32.17.47.26s.3.19.45.3c-.43-.3.13.12.18.16.1.1.21.2.3.3.1.1.19.2.28.31-.16-.22-.16-.22,0,0,.19.29.35.59.53.89.31.55-.07-.27.04.09.05.17.12.33.17.49.1.33.18.67.23,1.01-.08-.59-.01.09-.01.18,0,.24,0,.48-.01.72,0,.15-.11.58,0,.07-.04.2-.08.4-.14.6-.04.13-.09.26-.13.39.16-.52-.04.08-.09.17-.08.16-.17.31-.27.45-.06.09-.36.47-.09.14-.29.35-.62.67-.97.95.39-.32-.19.12-.23.15-.13.08-.26.16-.39.24-.2.11-.4.21-.61.32-.61.33.27-.05-.08.04s-.65.23-.98.31c-.12.03-.24.06-.37.08-.12.02-.25.05-.37.07.36-.04.4-.05.11-.02-.54.03-1.38.2-1.88-.02.53.23.15.02-.07-.02-.15-.03-.31-.06-.46-.1-.36-.09-.72-.2-1.08-.31-.14-.04-.55-.22,0,.02-.17-.08-.34-.15-.5-.24-.27-.14-.54-.29-.79-.46-.02-.01-.5-.37-.19-.13s-.15-.14-.17-.15c-.27-.24-.51-.51-.75-.78-.39-.45.25.42-.06-.09-.06-.1-.14-.2-.2-.31-.1-.16-.17-.32-.27-.48-.28-.5.1.44-.05-.13-.08-.3-.17-.59-.22-.9.08.51.02.09.02-.04,0-.21,0-.43,0-.65,0-.56-.1.25,0-.06.06-.21.08-.43.14-.64.05-.18.11-.36.17-.54.13-.42-.15.23.08-.19.18-.33.35-.66.56-.98.01-.02.37-.52.13-.2.11-.15.24-.29.37-.42s.26-.26.39-.39c.01-.01.44-.34.19-.17.15-.1.31-.19.46-.28.04-.02.5-.22.22-.11.69-.26,1.2-.31,1.76-.2.88.17,1.8-.25,2.05-1.16s-.29-1.8-1.16-2.05h0Z"/>
  <path class="cls-2" d="m266.77,306.84c-3.4.6-6.57,3.45-7.39,6.81-.95,3.88.66,7.75,4.08,9.81s7.55,1.93,10.6-.51c2.78-2.23,3.86-6.3,2.96-9.69-.57-2.15-1.98-3.92-3.86-5.09-1-.62-2.15-1.1-3.3-1.35-1.28-.28-2.65,0-3.93.18-1.41.21-1.71,2.55-.41,3.13.67.3,1.32.63,1.97.99.44.24.89.39,1.36.55.2.07.4.14.6.22.13.05.26.1.39.15-.28-.12-.29-.12-.03,0,.3.17.61.32.9.51,0,0,.53.41.25.17s.22.21.22.21c.13.12.25.26.37.39.37.37-.19-.36-.05-.07.05.1.45.89.52.9-.12-.02-.18-.51-.07-.16.05.15.1.3.15.46.06.21.05.61.17.78l-.05-.36c.01.11.02.21.03.32,0,.16.01.32.01.48,0,.11,0,.22-.01.32,0,.11-.01.22-.02.32-.03.28-.02.22.03-.19-.1.1-.13.62-.18.79-.04.16-.09.31-.15.46l-.06.15c-.1.26-.08.2.07-.16-.06,0-.33.63-.38.71-.07.11-.15.22-.22.34-.34.53.3-.3-.04.05-.19.19-.38.38-.57.57-.4.39.49-.3.01,0-.14.09-.27.18-.41.26-.1.05-.2.1-.29.16-.5.29.55-.16,0,0-.32.1-.63.18-.95.26-.56.14.61-.03.04,0-.16,0-.33.02-.49.02s-.71-.12-.82-.04l.36.05c-.11-.02-.22-.04-.33-.06-.11-.02-.22-.05-.33-.07-.16-.04-.32-.08-.48-.14-.11-.03-.21-.07-.32-.11-.21-.08-.21-.08,0,0l.15.07c-.1-.04-.2-.09-.3-.14-.15-.07-.3-.15-.44-.24-.07-.04-.71-.38-.7-.45l.25.2c-.09-.07-.17-.14-.26-.21-.08-.07-.16-.15-.24-.23-.13-.13-.8-.67-.79-.85,0-.01.35.53.1.11-.09-.14-.18-.28-.26-.42-.03-.05-.25-.39-.23-.44,0,0,.2.58.05.12-.11-.34-.19-.67-.28-1.02-.03-.13-.15-.42,0,.11-.06-.21-.04-.48-.04-.7,0-.15.01-.29.02-.44.01-.6-.08.27.02-.18.08-.35.16-.68.26-1.02.05-.17.09-.34.15-.51.02-.06.23-.64.14-.41-.11.29.12-.25.11-.24.1-.21.22-.42.34-.62.06-.1.12-.2.19-.29.07-.1.13-.19.2-.28-.1.14-.09.12.05-.05.1-.11.19-.23.29-.34.04-.05.39-.38.25-.27.57-.47,1.21-.76,1.83-.95.77-.23,1.25-1.04,1.04-1.83-.23-.83-1.03-1.18-1.83-1.04h0Z"/>
  <path class="cls-2" d="m291.17,302.61c-3.84.54-6.77,3.78-7.75,7.41-1.07,3.95.31,8.24,3.82,10.46,3.3,2.09,7.92,2.02,11.26.07,3.77-2.2,5.47-6.59,4.32-10.78-.6-2.18-1.91-4.27-3.66-5.71-1.01-.83-2.11-1.45-3.37-1.84s-2.48-.39-3.77-.17c-.99.17-1.58,1.32-1.46,2.23.14,1.06.98,1.66,2,1.76.39.04-.33-.09.19.04.16.04.32.08.48.12.37.1.74.24,1.11.33.3.07-.36-.19-.09-.04.07.04.15.07.22.11.15.07.29.15.44.23.31.18.71.39.96.66-.41-.43-.01,0,.11.1.15.13.29.26.43.4.12.12.24.24.35.37.14.16.47.6.16.17.21.3.42.6.6.92.08.15.17.3.24.45.04.08.07.15.11.23.25.49-.1-.33,0-.03.11.35.25.68.34,1.04.04.16.08.32.11.49,0,0,.08.3.06.33.03-.05-.04-.52-.03-.14s.04.71.02,1.07c0,.08-.01.16-.02.25-.03.48.02-.15.02-.15.04.04-.1.5-.12.57-.05.19-.11.37-.17.56-.12.43.19-.35-.01.05-.17.33-.35.63-.54.94-.21.34.32-.35-.04.06-.12.13-.24.27-.36.39-.11.11-.22.21-.33.31-.06.05-.12.1-.17.15-.21.2.43-.29.07-.05-.28.18-.55.37-.85.53-.14.07-.27.14-.41.21-.07.03-.14.06-.21.1-.47.22.37-.12.08-.03-.32.09-.64.22-.96.31-.15.04-.3.07-.46.11-.1.02-.2.04-.31.06-.36.07.12-.06.17-.02-.12-.09-.82.06-1.01.07-.37,0-.72-.04-1.09-.05-.26-.01.24.02.24.03,0-.01-.26-.04-.31-.05-.15-.03-.3-.06-.45-.1-.08-.02-1.03-.25-1.02-.32,0-.01.46.22.13.05-.07-.03-.14-.07-.21-.1-.16-.08-.32-.17-.47-.26-.13-.08-.26-.17-.38-.25-.08-.05-.27-.11-.01,0,.27.12-.04-.03-.12-.11-.25-.22-.49-.46-.71-.71-.05-.06-.1-.12-.15-.18.02.02.22.35.11.14-.09-.18-.24-.35-.34-.53-.08-.14-.15-.27-.22-.41-.25-.49.07.25-.05-.12-.11-.35-.22-.69-.3-1.05-.05-.24-.06-.41-.02-.04-.02-.18-.04-.36-.05-.55-.02-.37-.01-.73.01-1.1,0-.08.01-.16.02-.24.04-.51-.06.29,0,0,.04-.18.06-.37.1-.55.09-.41.21-.82.35-1.22.03-.07.06-.15.08-.22.1-.27-.14.29-.01.03.09-.19.18-.38.28-.57.19-.35.4-.68.63-1,.05-.06.09-.13.14-.19.12-.17-.18.2.05-.06.12-.14.24-.28.37-.41.14-.15.29-.29.45-.43.06-.05.12-.1.18-.15.23-.2-.07.04.08-.06.32-.22.65-.43,1.01-.59-.23.1.2-.07.27-.09.23-.08.46-.14.69-.19.82-.19,1.31-1.14,1.09-1.93-.25-.9-1.09-1.21-1.93-1.09h0Z"/>
  <path class="cls-2" d="m668.35,598.94c-.08,7.18,5.97,12.83,12.86,13.48,5.24.49,10.83-1.85,14.42-5.64,3.87-4.08,5.21-9.8,2.5-14.9-1.51-2.84-4.19-5.43-7.07-6.84-3.17-1.55-6.68-1.9-10.12-1.2-6.86,1.4-13.76,7.6-12.96,15.1.12,1.09.85,2.03,2.03,2.03,1.09,0,2.05-.93,2.03-2.03-.07-4.71,3.65-8.74,8.1-10.17,2.47-.79,4.78-.89,7.21-.1.95.31,2.16.97,2.96,1.62.54.44,1.05.93,1.53,1.43.24.25.47.51.69.77.08.1.16.19.24.29-.26-.35.17.26.18.27.3.44.56.9.8,1.37.07.13.12.26.19.39-.04-.09-.16-.46-.01-.02.08.26.18.52.26.78s.13.52.19.78c.03.13.05.26.07.39,0-.01-.05-.5-.03-.2.03.51.05,1.01.03,1.52,0,.1-.1.89-.04.5.06-.37-.06.27-.09.39-.11.49-.28.96-.44,1.44-.13.39.21-.36-.12.25-.11.2-.2.4-.31.59-.26.45-.55.88-.85,1.3-.21.3.28-.33.04-.05-.06.07-.12.15-.19.23-.18.2-.35.4-.53.59-.37.39-.76.76-1.17,1.11-.1.09-.59.47-.38.31s-.41.28-.49.34c-.46.31-.93.6-1.41.86-.21.12-.43.23-.65.33-.1.05-.88.4-.35.18-.51.21-1.04.4-1.57.56-.46.14-.94.26-1.41.35-.27.05-.54.1-.82.14.54-.08-.19.01-.37.02-.62.04-1.24.05-1.86,0-.19-.01-.9-.09-.38-.02-.31-.04-.61-.1-.91-.17-.58-.13-1.13-.31-1.69-.51-.13-.05-.26-.1-.39-.15.44.17-.02,0-.11-.05-.29-.14-.58-.29-.86-.45-1.1-.63-1.72-1.15-2.68-2.25-1.34-1.53-2.39-3.45-2.78-5.45-.36-1.88-3.25-1.39-3.27.44Z"/>
  <path class="cls-2" d="m687.26,602.73c0-.11-.01-.23-.02-.34,0-.21,0-.23-.03-.06-.05.29-.03.14.06-.45,0-.11,0-.23-.01-.34,0-.22,0-.23-.03-.04-.07.33-.05.17.05-.48,0-.17-.04-.35-.06-.52-.05-.4-.09-.81-.13-1.21-.03-.33-.08-.66-.12-.99.09.68,0,0-.02-.14-.11-.91-.2-1.82-.36-2.73-.07-.37-.12-.74-.19-1.11-.09-.52-.34-.97-.56-1.45-.33-.71-1.27-1.04-1.98-.95-.81.11-1.39.66-1.65,1.42-.58,1.68-.3,3.56-.04,5.28.11.73.25,1.44.42,2.15.04.17.08.34.13.51.03.11.06.23.09.34l.23.54c-.1-.28-.1-.3,0-.06l.07.16c.19.47.38.81.7,1.2l-.52-.89c.15.37.31.74.46,1.1.31.73,1.41,1.1,2.13.87.77-.25,1.43-.97,1.39-1.82h0Z"/>
  <path class="cls-2" d="m679.77,598.7c2.05-1.44,3.68-3.31,5.3-5.2h-2.94c-.4-.47.1.13.12.15.12.15.24.31.36.46.16.2.33.38.53.54.49.4.99.78,1.53,1.1s1.14.63,1.73.81c.39.12.8.19,1.21.23.56.05,1.03-.11,1.54-.33.99-.43,1.43-2.11.78-2.97-.31-.4-.61-.77-1.07-1-.04-.02-.91-.38-.48-.21.33.13,0,0-.07-.04-.35-.16-.7-.31-1.06-.44s.15.05.14.06c0,0-.33-.15-.35-.16-.39-.19-.76-.41-1.12-.65-.17-.11-.34-.22-.51-.32-.11-.06-.22-.13-.32-.2s-.36-.29,0,.02c-.51-.45-1.07-.66-1.75-.57s-1.11.45-1.52.99c-.18.23-.35.47-.53.7-.23.3.09-.11-.06.07-.09.12-.18.23-.27.35-.36.46-.73.92-1.11,1.38-.81.98-1.57,1.97-2.26,3.04-.37.57-.25,1.47.25,1.94s1.35.67,1.94.25h0Z"/>
  <path class="cls-2" d="m629.07,296.08c3.75-.52,7.49-1.08,11.2-1.9,1.8-.4,3.61-.82,5.4-1.27.9-.23,1.75-.6,2.64-.86.96-.28,1.9-.56,2.82-.95,1.52-.65.68-3.03-.81-3.01-1.01.01-2.01.2-3.01.33-.87.12-1.72.12-2.58.26-1.9.31-3.79.69-5.67,1.08-3.7.76-7.32,1.77-10.94,2.82-.94.27-1.52,1.27-1.26,2.22.29,1.04,1.25,1.4,2.22,1.26h0Z"/>
  <path class="cls-2" d="m630.32,304.35c3.94-.28,7.81-.92,11.67-1.74,1.88-.4,3.77-.77,5.62-1.25l2.79-.72c1.02-.26,1.94-.68,2.93-1.03,1.78-.63,1.67-3.7-.48-3.52-1.96.16-3.85.38-5.81.71s-3.92.77-5.87,1.19c-3.84.83-7.61,1.8-11.3,3.15-1.61.59-1.53,3.34.43,3.2h0Z"/>
  <path class="cls-2" d="m631.46,314.29c4.2-.48,8.29-1.23,12.43-2.06,1.97-.4,3.96-.75,5.91-1.21,1.06-.25,2.24-.52,3.23-.96.94-.42,1.95-.71,2.81-1.3,1.01-.69,1.07-2.63-.38-2.89-2.13-.38-4.4-.02-6.51.35-1.98.34-3.94.84-5.89,1.28-4.09.92-8.11,1.88-12.1,3.15-1.89.6-1.68,3.9.49,3.65h0Z"/>
  <g>
    <path class="cls-5" d="m797.43,554.45c2.12-42.38-1.26-85.53-15.27-125.59-15.23-43.55-25.61-67.6-68.9-87.39-10.8-4.94-64.12-10.98-45.35,4.81,12.87,10.83,18.74,10.45,34.32,15.2"/>
    <path class="cls-2" d="m798.86,554.45c2.74-34.02.84-68.53-7.13-101.78-3.48-14.54-8.37-28.71-13.7-42.67-3.94-10.32-8.29-20.58-14.11-29.99-5.46-8.83-12.25-16.84-20.3-23.41-9.03-7.37-19.59-13.93-30.47-18.16-6.76-2.62-14.41-3.51-21.57-4.31-7.59-.85-15.87-1.63-23.4.11-2.41.56-5.13,1.61-6.38,3.9-1.48,2.71-.08,5.6,1.73,7.73,3.45,4.07,8.52,7.43,13.17,9.97,4.71,2.57,9.81,4.12,14.96,5.53,3.3.9,6.57,1.76,9.92,2.43,3.12.63,4.13-3.51,1.29-4.67-5.36-2.19-11.04-3.26-16.52-5.1-5.08-1.7-9.69-4.36-13.93-7.63-1.72-1.33-3.6-2.72-4.98-4.44-.18-.22-.4-.52-.65-1.02.01.02-.11-.64-.09-.25-.01-.2.03.07,0,.03.02.03-.1.06.15-.11.88-.56,1.29-.67,2.65-1,6.65-1.59,14.49-.76,21.36-.02,6.7.72,13.71,1.66,20.08,3.93.28.1.56.2.83.31.04.01-.23-.11.42.19,1.49.68,2.96,1.38,4.42,2.11,2.76,1.36,5.49,2.8,8.16,4.32,4.78,2.73,9.42,5.73,13.74,9.14,7.69,6.07,14.36,13.27,19.73,21.46s9.88,17.81,13.63,27.26c5,12.59,9.63,25.42,13.21,38.49,8.54,31.21,10.73,63.34,10.96,95.56.03,4.03,0,8.06-.07,12.08-.03,1.87,2.73,1.82,2.87,0h0Z"/>
  </g>
  <path class="cls-2" d="m724.8,394.19c-4.66-4.99-10.72-8.21-14.54-14.05-3.5-5.36-5.43-11.62-5.85-17.99-.16-2.4-3.43-2.33-3.68,0-.75,7,1.15,14.14,4.92,20.07,1.85,2.9,4.11,5.66,6.77,7.86,3.03,2.5,6.5,4.41,9.36,7.12,1.99,1.89,4.89-1.01,3.01-3.01h0Z"/>
  <path class="cls-6" d="m1000.33,560c-.89-1.12-2.01-2.15-3.25-3.06-.26-.19-.53-.33-.79-.49-.57-2.99-2.4-5.54-5.78-6.56-4.54-1.37-10.83,1.09-14.92,3.14-7.35,3.68-5.84,19.68,2.18,21.96,1.57.45,3.54.67,5.66.68,5.73-2.55,11.55-4.89,17.48-6.95.16-.26.33-.51.46-.78.68-1.42.84-2.72.71-3.95-.62-1.3-1.19-2.63-1.75-3.99Z"/>
  <path class="cls-8" d="m999.16,564.41c-.05-.24-.17-.46-.24-.7-.05-.16-.1-.31-.16-.47-.06-.14-.08-.3-.15-.44-.19-.34-.43-.64-.68-.93,0,0,0,0,0,0h0c-.13-.15-.25-.29-.37-.44-.17-.2-.32-.41-.48-.62-1.87-2.71-3.04-5.88-5.15-8.42-.79-.95-2.31-1.23-3.45-.92-1.18.33-2.18,1.3-2.47,2.5-.69,2.83.26,6.06,1.54,8.57,1.02,2.01,2.33,3.88,3.76,5.61.72.86,2.1,1.39,3.19,1.42,1.12.03,2.47-.44,3.26-1.26.97-1.01,1.41-2.26,1.35-3.5.15.28.18.16.06-.41Z"/>
  <path class="cls-6" d="m1025.23,553.98c-.82-2.68-1.64-5.37-2.46-8.05-.82-2.68-1.64-5.35-2.49-8.02-.77-2.42-1.33-5.15-2.76-7.27-1.71-2.54-4.6-3.89-7.62-3.13-2.35.59-4.97,2.58-6.64,4.28-.78.8-1.44,1.69-1.94,2.66-1.45.66-2.85,1.43-3.91,2.64-1.97,2.24-1.94,5.04-1.53,7.82.5,3.37,1.27,6.81,2.21,10.1,1.29,4.48,2.9,9.52,5.98,13.11,1.7,1.98,4.03,3.31,6.66,3.51,2.63.2,4.85-.94,7.11-2.14.88-.47.99-.47,2.02-.71.67-.15,1.34-.31,1.99-.53,2.79-.92,5.1-2.83,5.43-5.93.29-2.73-1.27-5.77-2.05-8.34Z"/>
  <path class="cls-2" d="m1012.21,524.76c-3.92,1.15-7.62,2.83-11.19,4.82-2.89,1.61-6.52,3.3-8.67,5.88-2.56,3.07-1.83,6.79-1.32,10.46.52,3.74,1.47,7.42,2.76,10.97,1.29,3.55,2.83,7.02,4.64,10.33,1.59,2.91,3.72,7.62,6.89,9.1,3.44,1.6,8.35-.59,11.79-1.53,4.28-1.18,8.58-2.26,12.41-4.51,2-1.17,1.3-4.88-1.26-4.63-3.57.34-6.81,1.32-10.27,2.26-1.58.43-3.17.84-4.76,1.26-1.18.31-3.55,1.38-4.77,1.19-.29.34-.52.28-.69-.18l-.46-.66c-.46-.66-.9-1.35-1.33-2.03-.86-1.37-1.68-2.76-2.44-4.19-1.46-2.73-2.73-5.55-3.78-8.47-1.05-2.92-1.92-5.89-2.67-8.9-.56-2.24-2.34-6.55-.45-8.44,2.15-2.15,5.26-3.7,7.9-5.18,2.91-1.62,5.92-3.09,8.9-4.59,1.64-.83.5-3.46-1.24-2.95h0Z"/>
  <path class="cls-2" d="m997.68,567.88c-7.58,1.28-14.81,3.61-22.08,6.06l3.32,1.88c-1.39-3.42-2.74-6.87-4.03-10.34-.64-1.74-1.26-3.49-1.85-5.24-.28-.84-.46-1.85-.86-2.64l-.15-.52c-.29.92-.39,1.23-.3.92,0,0,.76-.41.71-.39,3.19-1.54,6.6-2.74,9.91-3.96,1.77-.66,3.56-1.29,5.35-1.9,1.91-.65,4.02-1.1,5.76-2.15,2.32-1.39,1.5-5.56-1.45-5.36-2.33.16-4.56,1.11-6.75,1.87-1.97.68-3.92,1.39-5.87,2.13-2.12.81-4.23,1.65-6.33,2.52-1.82.76-4.04,1.39-5.5,2.8-1.81,1.74-1.79,3.92-1.05,6.16.67,2.03,1.39,4.03,2.15,6.03,1.57,4.15,3.31,8.18,5.31,12.14.71,1.41,2.42,1.51,3.69.97,6.8-2.93,13.98-5.04,21.02-7.28,2.4-.76,1.39-4.11-1.02-3.71h0Z"/>
  <path class="cls-2" d="m1078.48,493.94c.48,33.11.9,66.23.09,99.34-.4,16.35-.93,32.72-2.08,49.04-.15,2.08-.31,4.15-.5,6.22-.13,1.49,0,3.67-.76,5.03-1.69,3.01-6.28-3.93-7.31-5.37-4.16-5.82-7.3-12.28-10.2-18.79-13.19-29.56-25.28-59.65-36.78-89.9-2.85-7.51-5.52-15.1-8.48-22.56-2.92-7.37-6.26-14.56-9.28-21.88-6.09-14.76-9.88-30.34-16.28-44.98-2.71-6.2-5.93-12.16-10.16-17.46-3.29-4.13-9.16-11.36-15.24-9.45-6.16,1.94-8.07,9.37-8.37,15.04-.41,7.73.51,15.64,1.37,23.31.44,3.92.96,7.83,1.49,11.74.35,2.57,4.9,1.99,4.57-.62-1.04-8.05-2.19-16.11-2.68-24.22-.36-5.88-1.71-15.3,3.26-19.77,3.21-2.89,6.55.99,8.83,3.29,2.45,2.47,4.57,5.22,6.44,8.14,4.03,6.29,6.97,13.23,9.58,20.21,2.8,7.49,5.2,15.13,7.7,22.73,2.44,7.41,5.41,14.59,8.52,21.75,6.43,14.81,11.83,29.99,17.63,45.05,5.81,15.06,11.81,30.05,17.99,44.96,6,14.48,11.82,29.17,18.7,43.26,3.06,6.27,6.62,12.56,11.37,17.73,1.99,2.16,4.83,4.18,7.91,3.31,2.64-.75,3.96-3.24,4.43-5.78,1.38-7.46,1.31-15.41,1.68-22.97.4-8.23.72-16.46.98-24.7.52-16.63.82-33.28.66-49.92-.16-16.44-.17-33.03-1.48-49.42-.33-4.11-.62-8.23-.94-12.35-.13-1.68-2.67-1.72-2.65,0h0Z"/>
  <path class="cls-4" d="m1014.75,563.22c-.52-3.72-5.29-7.9-6.68-10.66-2.26-4.5-3.49-9.69-.97-14.34.93-1.72,1.37-3.53-1.23-3.1-10.46,1.72-4.44,19.23-2.1,25.1.94,2.35,2.31,5.43,4.69,6.66,1.92.99,5.15.68,6.06-1.58.27-.67.33-1.37.23-2.08Z"/>
  <path class="cls-3" d="m420.9,567.35c-.99-3.2-2.6-6.3-5.38-8.3-3.17-2.28-7.49-3.08-10.95-.95-1.62.99-1.12,3.56.87,3.63,5.22.19,8.05,4.99,8.66,9.49.1.77.11,1.75.06,2.88-.03.56-.06,1.12-.12,1.67-.03.3-.08.6-.12.9-.02.1-.18,1.01-.17.96-.17,1.13-.5,2.15-.88,3.23-.61,1.75-1.08,3.4-2.02,4.99-1.14,1.95,1.55,4.23,3.32,2.9,1.34-1.01,2.46-2.16,3.48-3.45,1.27-1.01,1.98-2.6,2.59-4.08.63-1.53,1.06-3.02,1.33-4.65.5-3.04.25-6.29-.66-9.22Z"/>
  <path class="cls-3" d="m499.86,549.76c-2.53-4.79-9.1-10.05-14.73-7.3-2.07,1.01-2.03,4.17.48,4.61.65.11,1.52.66,1.97.87.39.18.78.38,1.16.59.24.13.47.27.7.41.28.16.28.21.01.01.37.27.76.52,1.12.81,1.27,1.02,2.16,2.29,2.81,3.7.08.18.16.37.24.55,0,0,0,.01,0,.02.12.44.25.87.33,1.32.04.21.07.42.1.64.02.12.02.45.03.48,0,.31.01.62,0,.92-.04.88-.08,1.79-.22,2.67-.08.46-.2.89-.34,1.34-.24.75-.3,1.39-.2,2-.04.11-.06.23-.1.34-.36.99-.22,2.09.62,2.8.77.65,2.06.77,2.88.13.27-.21.55-.51.83-.69.57-.36,1.06-.39,1.53-1,.49-.63.88-1.39,1.22-2.11.75-1.57,1.29-3.33,1.35-5.08.09-2.76-.5-5.59-1.79-8.04Z"/>
  <path class="cls-3" d="m582.88,535.55c-2.11-5.49-10.82-15.43-16.59-8.56-1.07,1.27.42,2.83,1.76,2.7.04,0,.08,0,.12,0,2.35,1.02,3.92,2.38,5.44,4.37,1.36,1.78,2.17,3.48,2.55,5.49.25,1.35-.21,3.97-.8,5.33-.51,1.18-1.09,2.35-1.72,3.48-.79,1.41-1.37,2.51-1.32,3.97-.19.57-.36,1.13-.52,1.71-.53,1.9,1.82,3.26,3.35,2.31.46-.28.88-.61,1.3-.93,1.14-.29,1.98-.86,2.83-1.95.53-.69,1.03-1.41,1.5-2.14,1-1.54,1.79-3.2,2.35-4.96,1.13-3.56,1.09-7.35-.25-10.84Z"/>
  <path class="cls-2" d="m868.65,438.24c3.73-14.75,3.54-31.29-1.48-45.72-.68-1.95-3.61-1.18-3.11.86,1.61,6.69,2.22,13.62,2.51,20.47.33,7.79-.09,15.71-1.59,23.37-.46,2.38,3.07,3.42,3.67,1.01h0Z"/>
  <path class="cls-2" d="m1087.79,401.81c-10,22.08-13.69,46.78-12.79,70.88.08,2.07,3.18,2.08,3.23,0,.6-23.44,4.08-47.62,13.05-69.41.82-1.98-2.59-3.43-3.48-1.47h0Z"/>
</svg>